<svg width="25" height="24" viewBox="0 0 25 24" fill="none" xmlns="http://www.w3.org/2000/svg">
<path d="M8.49994 5.07C10.1808 4.0999 12.1571 3.77391 14.0605 4.15277C15.9639 4.53163 17.6647 5.58949 18.846 7.12929C20.0274 8.66909 20.6087 10.5858 20.4816 12.5224C20.3546 14.459 19.528 16.2834 18.1557 17.6557C16.7833 19.028 14.9589 19.8547 13.0224 19.9817C11.0858 20.1087 9.16903 19.5274 7.62923 18.3461C6.08943 17.1648 5.03156 15.464 4.65271 13.5605C4.27385 11.6571 4.59984 9.6809 5.56994 8" stroke="white" stroke-width="1.5" stroke-linecap="round"/>
<path d="M14.3301 14.926C8.90205 17.819 3.68205 18.853 2.67005 17.236C2.13805 16.384 2.88105 14.966 4.50005 13.39M18.3491 6.19C20.3601 5.82 21.8391 5.98 22.3291 6.763C23.1271 8.038 21.0691 10.58 17.5001 13.016" stroke="white" stroke-width="1.5" stroke-linecap="round" stroke-linejoin="round"/>
</svg>
