<svg width="25" height="24" viewBox="0 0 25 24" fill="none" xmlns="http://www.w3.org/2000/svg">
<mask id="mask0_3396_22615" style="mask-type:alpha" maskUnits="userSpaceOnUse" x="0" y="0" width="25" height="24">
<rect x="0.5" width="24" height="24" fill="white"/>
</mask>
<g mask="url(#mask0_3396_22615)">
<path d="M4.4751 19.8L3.6251 19.45C3.10843 19.2333 2.7626 18.8583 2.5876 18.325C2.4126 17.7917 2.44176 17.2667 2.6751 16.75L4.4751 12.85V19.8ZM8.4751 22C7.9251 22 7.45426 21.8042 7.0626 21.4125C6.67093 21.0208 6.4751 20.55 6.4751 20V14L9.1251 21.35C9.1751 21.4667 9.2251 21.5792 9.2751 21.6875C9.3251 21.7958 9.39176 21.9 9.4751 22H8.4751ZM13.6251 21.9C13.0918 22.1 12.5751 22.075 12.0751 21.825C11.5751 21.575 11.2251 21.1833 11.0251 20.65L6.5751 8.45001C6.3751 7.91667 6.39176 7.39584 6.6251 6.88751C6.85843 6.37917 7.24176 6.03334 7.7751 5.85001L15.3251 3.10001C15.8584 2.90001 16.3751 2.92501 16.8751 3.17501C17.3751 3.42501 17.7251 3.81667 17.9251 4.35001L22.3751 16.55C22.5751 17.0833 22.5584 17.6042 22.3251 18.1125C22.0918 18.6208 21.7084 18.9667 21.1751 19.15L13.6251 21.9ZM11.4751 10C11.7584 10 11.9959 9.90418 12.1876 9.71251C12.3793 9.52084 12.4751 9.28334 12.4751 9.00001C12.4751 8.71667 12.3793 8.47917 12.1876 8.28751C11.9959 8.09584 11.7584 8.00001 11.4751 8.00001C11.1918 8.00001 10.9543 8.09584 10.7626 8.28751C10.5709 8.47917 10.4751 8.71667 10.4751 9.00001C10.4751 9.28334 10.5709 9.52084 10.7626 9.71251C10.9543 9.90418 11.1918 10 11.4751 10ZM12.9251 20L20.4751 17.25L16.0251 5.00001L8.4751 7.75001L12.9251 20Z" fill="white"/>
</g>
</svg>
