<svg width="25" height="24" viewBox="0 0 25 24" fill="none" xmlns="http://www.w3.org/2000/svg">
<path d="M22.2571 12.0032C22.2571 13.2837 22.0049 14.5517 21.5149 15.7347C21.0249 16.9178 20.3066 17.9927 19.4012 18.8982C18.4958 19.8036 17.4208 20.5219 16.2378 21.0119C15.0548 21.5019 13.7868 21.754 12.5064 21.754C11.2259 21.754 9.95793 21.5019 8.77491 21.0119C7.59189 20.5219 6.51699 19.8036 5.61155 18.8982C4.70611 17.9927 3.98788 16.9178 3.49786 15.7347C3.00784 14.5517 2.75561 13.2837 2.75562 12.0032C2.75561 10.7228 3.00784 9.45494 3.49786 8.27193C3.98788 7.08891 4.70611 6.01392 5.61155 5.10848C6.51699 4.20304 7.59189 3.48481 8.77491 2.99479C9.95793 2.50477 11.2259 2.2525 12.5064 2.2525C13.7868 2.2525 15.0548 2.50477 16.2378 2.99479C17.4208 3.48481 18.4958 4.20304 19.4012 5.10848C20.3066 6.01392 21.0249 7.08891 21.5149 8.27193C22.0049 9.45494 22.2571 10.7228 22.2571 12.0032Z" stroke="white" stroke-width="1.5" stroke-linecap="round" stroke-linejoin="round"/>
<path d="M8.29175 17.5684C8.29175 16.1906 9.40096 15.0815 10.7787 15.0815H14.2339C15.6117 15.0815 16.7209 16.1906 16.7209 17.5684M15.5595 9.29597C15.5595 10.9822 14.1925 12.3492 12.5063 12.3492C10.8201 12.3492 9.45317 10.9822 9.45317 9.29597C9.45317 7.60979 10.8201 6.24274 12.5063 6.24274C14.1925 6.24274 15.5595 7.60979 15.5595 9.29597Z" stroke="white" stroke-width="1.5" stroke-linecap="round" stroke-linejoin="round"/>
</svg>
