<svg width="375" height="47" viewBox="0 0 375 47" fill="none" xmlns="http://www.w3.org/2000/svg">
<g clip-path="url(#clip0_3396_17858)">
<path d="M110.768 -2H265.184V13C265.184 22.3888 257.572 30 248.184 30H127.768C118.379 30 110.768 22.3888 110.768 13V-2Z" fill="black"/>
<path d="M111 -2H106C106 -2 106 -2 106 -2C108.651 -2 110.799 0.148747 110.799 2.79934C110.799 2.86656 110.798 2.93345 110.795 3H111V-2Z" fill="black"/>
<path d="M265 -2H270C270 -2 270 -2 270 -2C267.349 -2 265.201 0.148747 265.201 2.79934C265.201 2.86656 265.202 2.93345 265.205 3H265V-2Z" fill="black"/>
<path d="M39.8786 19.7231C42.4352 19.7231 44.6599 21.541 44.6599 25.8574V25.874C44.6599 29.9082 42.842 32.2988 39.8288 32.2988C37.6291 32.2988 35.9855 30.9956 35.6037 29.1611L35.5871 29.0698H37.6955L37.7204 29.1528C38.0358 29.9912 38.7746 30.5391 39.8288 30.5391C41.7297 30.5391 42.5349 28.6797 42.6262 26.3887C42.6262 26.2974 42.6345 26.2061 42.6345 26.1147H42.4684C42.0285 27.061 40.9826 27.8994 39.3391 27.8994C37.0397 27.8994 35.4294 26.2227 35.4294 23.9482V23.9316C35.4294 21.4995 37.2805 19.7231 39.8786 19.7231ZM39.8703 26.2559C41.2233 26.2559 42.2609 25.2764 42.2609 23.9233V23.9067C42.2609 22.5371 41.2233 21.4663 39.8952 21.4663C38.5754 21.4663 37.5212 22.5205 37.5212 23.8569V23.8735C37.5212 25.2598 38.509 26.2559 39.8703 26.2559ZM48.0204 24.2388C47.265 24.2388 46.7006 23.6577 46.7006 22.9272C46.7006 22.1885 47.265 21.6157 48.0204 21.6157C48.7841 21.6157 49.3402 22.1885 49.3402 22.9272C49.3402 23.6577 48.7841 24.2388 48.0204 24.2388ZM48.0204 30.3979C47.265 30.3979 46.7006 29.8252 46.7006 29.0864C46.7006 28.3477 47.265 27.7749 48.0204 27.7749C48.7841 27.7749 49.3402 28.3477 49.3402 29.0864C49.3402 29.8252 48.7841 30.3979 48.0204 30.3979ZM57.1915 32V29.7007H51.3312V27.9492C52.8834 25.2515 54.5851 22.4956 56.212 20.022H59.2418V27.9326H60.8522V29.7007H59.2418V32H57.1915ZM53.3233 27.9824H57.2247V21.7319H57.1002C55.8717 23.6079 54.4855 25.8242 53.3233 27.8579V27.9824ZM65.408 32V22.1304H65.2669L62.2869 24.2388V22.2217L65.4163 20.022H67.5496V32H65.408Z" fill="white"/>
<path opacity="0.35" d="M328 19.5273H345C346.918 19.5273 348.473 21.0822 348.473 23V28C348.473 29.9178 346.918 31.4727 345 31.4727H328C326.082 31.4727 324.527 29.9178 324.527 28V23C324.527 21.0822 326.082 19.5273 328 19.5273Z" stroke="white" stroke-width="1.05509"/>
<path opacity="0.4" d="M350 24V28.2203C350.849 27.8629 351.401 27.0314 351.401 26.1102C351.401 25.1889 350.849 24.3574 350 24Z" fill="white"/>
<path d="M326 23C326 21.8954 326.895 21 328 21H345C346.105 21 347 21.8954 347 23V28C347 29.1046 346.105 30 345 30H328C326.895 30 326 29.1046 326 28V23Z" fill="white"/>
<path d="M306.115 29.085C307.535 27.8594 309.614 27.8595 311.034 29.085C311.106 29.1509 311.147 29.2445 311.149 29.3428C311.151 29.441 311.114 29.5357 311.045 29.6045L308.821 31.8945C308.756 31.9617 308.668 31.9999 308.575 32C308.482 32 308.393 31.9618 308.328 31.8945L306.104 29.6045C306.036 29.5356 305.998 29.441 306 29.3428C306.002 29.2445 306.044 29.1508 306.115 29.085ZM303.109 26.2617C306.168 23.3571 310.906 23.3571 313.965 26.2617C314.034 26.3298 314.073 26.4235 314.074 26.5215C314.075 26.6194 314.037 26.7138 313.97 26.7832L312.685 28.1084C312.552 28.2437 312.338 28.247 312.202 28.1152C311.198 27.1868 309.891 26.6718 308.536 26.6719C307.182 26.6724 305.876 27.1873 304.872 28.1152C304.736 28.247 304.522 28.2437 304.39 28.1084L303.104 26.7832C303.037 26.7139 302.999 26.6194 303 26.5215C303.001 26.4235 303.04 26.3298 303.109 26.2617ZM300.107 23.4424C304.799 18.8528 312.201 18.8528 316.893 23.4424C316.96 23.5106 316.999 23.6039 317 23.7012C317 23.7983 316.963 23.892 316.896 23.9609L315.609 25.2861C315.477 25.4221 315.262 25.4238 315.127 25.29C313.339 23.5553 310.967 22.588 308.5 22.5879C306.033 22.588 303.661 23.5553 301.873 25.29C301.738 25.4239 301.523 25.4223 301.391 25.2861L300.104 23.9609C300.037 23.892 300 23.7982 300 23.7012C300.001 23.6039 300.039 23.5105 300.107 23.4424Z" fill="white"/>
<path d="M284 23C284 22.4477 284.448 22 285 22H286C286.552 22 287 22.4477 287 23V31C287 31.5523 286.552 32 286 32H285C284.448 32 284 31.5523 284 31V23Z" fill="white"/>
<path d="M289 21C289 20.4477 289.448 20 290 20H291C291.552 20 292 20.4477 292 21V31C292 31.5523 291.552 32 291 32H290C289.448 32 289 31.5523 289 31V21Z" fill="white"/>
<path d="M279 26.5C279 25.9477 279.448 25.5 280 25.5H281C281.552 25.5 282 25.9477 282 26.5V31C282 31.5523 281.552 32 281 32H280C279.448 32 279 31.5523 279 31V26.5Z" fill="white"/>
<path d="M274 29C274 28.4477 274.448 28 275 28H276C276.552 28 277 28.4477 277 29V31C277 31.5523 276.552 32 276 32H275C274.448 32 274 31.5523 274 31V29Z" fill="white"/>
</g>
<defs>
<clipPath id="clip0_3396_17858">
<rect width="375" height="47" fill="white"/>
</clipPath>
</defs>
</svg>
