<svg width="24" height="24" viewBox="0 0 24 24" fill="none" xmlns="http://www.w3.org/2000/svg">
<path d="M12 3C15.866 3 19 6.13401 19 10C19 11.9565 18.1171 13.7859 16.9512 15.4941C15.7861 17.2011 14.2327 18.9308 12.7588 20.6504L12 21.5361L11.2412 20.6504C9.76725 18.9308 8.21389 17.2011 7.04883 15.4941C5.88288 13.7859 5 11.9565 5 10C5 6.13401 8.13401 3 12 3ZM12 5C9.23858 5 7 7.23858 7 10C7 11.3572 7.61713 12.7779 8.70117 14.3662C9.60431 15.6894 10.7583 17.0291 12 18.4678C13.2417 17.0291 14.3957 15.6894 15.2988 14.3662C16.3829 12.7779 17 11.3572 17 10C17 7.23858 14.7614 5 12 5ZM12 7C13.6569 7 15 8.34315 15 10C15 11.6569 13.6569 13 12 13C10.3431 13 9 11.6569 9 10C9 8.34315 10.3431 7 12 7ZM12 9C11.4477 9 11 9.44772 11 10C11 10.5523 11.4477 11 12 11C12.5523 11 13 10.5523 13 10C13 9.44772 12.5523 9 12 9Z" fill="white"/>
</svg>
