<svg width="24" height="25" viewBox="0 0 24 25" fill="none" xmlns="http://www.w3.org/2000/svg">
<path fill-rule="evenodd" clip-rule="evenodd" d="M12 22.1C14.5461 22.1 16.9879 21.0886 18.7883 19.2883C20.5886 17.4879 21.6 15.0461 21.6 12.5C21.6 9.95395 20.5886 7.51215 18.7883 5.7118C16.9879 3.91145 14.5461 2.90002 12 2.90002C9.45395 2.90002 7.01215 3.91145 5.2118 5.7118C3.41145 7.51215 2.40002 9.95395 2.40002 12.5C2.40002 15.0461 3.41145 17.4879 5.2118 19.2883C7.01215 21.0886 9.45395 22.1 12 22.1ZM13.2 8.90002C13.2 8.58176 13.0736 8.27654 12.8486 8.0515C12.6235 7.82645 12.3183 7.70002 12 7.70002C11.6818 7.70002 11.3765 7.82645 11.1515 8.0515C10.9265 8.27654 10.8 8.58176 10.8 8.90002V11.3H8.40002C8.08176 11.3 7.77654 11.4265 7.5515 11.6515C7.32645 11.8765 7.20002 12.1818 7.20002 12.5C7.20002 12.8183 7.32645 13.1235 7.5515 13.3486C7.77654 13.5736 8.08176 13.7 8.40002 13.7H10.8V16.1C10.8 16.4183 10.9265 16.7235 11.1515 16.9486C11.3765 17.1736 11.6818 17.3 12 17.3C12.3183 17.3 12.6235 17.1736 12.8486 16.9486C13.0736 16.7235 13.2 16.4183 13.2 16.1V13.7H15.6C15.9183 13.7 16.2235 13.5736 16.4486 13.3486C16.6736 13.1235 16.8 12.8183 16.8 12.5C16.8 12.1818 16.6736 11.8765 16.4486 11.6515C16.2235 11.4265 15.9183 11.3 15.6 11.3H13.2V8.90002Z" fill="#989898"/>
</svg>
