<svg width="24" height="25" viewBox="0 0 24 25" fill="none" xmlns="http://www.w3.org/2000/svg">
<path d="M20.25 3.22485H15.75C15.4517 3.22485 15.1655 3.34338 14.9545 3.55436C14.7436 3.76534 14.625 4.05148 14.625 4.34985C14.625 4.64822 14.7436 4.93437 14.9545 5.14535C15.1655 5.35633 15.4517 5.47485 15.75 5.47485H17.5313L14.4638 8.54423C12.8691 7.35247 10.8823 6.80889 8.90303 7.02288C6.92378 7.23687 5.09902 8.19255 3.79593 9.6976C2.49284 11.2027 1.80814 13.1454 1.87959 15.1349C1.95104 17.1244 2.77335 19.013 4.18105 20.4207C5.58875 21.8284 7.47736 22.6507 9.46687 22.7222C11.4564 22.7936 13.3991 22.1089 14.9042 20.8058C16.4092 19.5028 17.3649 17.678 17.5789 15.6987C17.7929 13.7195 17.2493 11.7326 16.0575 10.138L19.125 7.0686V8.84985C19.125 9.14822 19.2436 9.43437 19.4545 9.64535C19.6655 9.85633 19.9517 9.97485 20.25 9.97485C20.5484 9.97485 20.8346 9.85633 21.0455 9.64535C21.2565 9.43437 21.375 9.14822 21.375 8.84985V4.34985C21.375 4.05148 21.2565 3.76534 21.0455 3.55436C20.8346 3.34338 20.5484 3.22485 20.25 3.22485ZM13.726 18.8305C12.9392 19.6169 11.9369 20.1524 10.8459 20.3693C9.75478 20.5861 8.62389 20.4746 7.59619 20.0488C6.56849 19.623 5.69012 18.902 5.07214 17.977C4.45415 17.0521 4.12431 15.9646 4.12431 14.8522C4.12431 13.7398 4.45415 12.6523 5.07214 11.7274C5.69012 10.8024 6.56849 10.0814 7.59619 9.65559C8.62389 9.22978 9.75478 9.11826 10.8459 9.33511C11.9369 9.55197 12.9392 10.0875 13.726 10.8739C14.7791 11.9301 15.3704 13.3607 15.3704 14.8522C15.3704 16.3437 14.7791 17.7743 13.726 18.8305Z" fill="white"/>
</svg>
