<svg width="25" height="24" viewBox="0 0 25 24" fill="none" xmlns="http://www.w3.org/2000/svg">
<path d="M12.5 3C17.4706 3 21.5 7.02944 21.5 12C21.5 16.9706 17.4706 21 12.5 21C7.52944 21 3.5 16.9706 3.5 12C3.5 7.02944 7.52944 3 12.5 3ZM7.54199 7.05664C6.27954 8.32281 5.5 10.0707 5.5 12C5.5 15.866 8.63401 19 12.5 19C13.7168 19 14.8606 18.6886 15.8574 18.1426L7.54199 7.05664ZM12.5 5C11.2831 5 10.1386 5.3103 9.1416 5.85645L17.4561 16.9424C18.7188 15.6762 19.5 13.9295 19.5 12C19.5 8.13401 16.366 5 12.5 5Z" fill="white"/>
</svg>
