<svg width="24" height="25" viewBox="0 0 24 25" fill="none" xmlns="http://www.w3.org/2000/svg">
<path d="M22 12.4126C21.9988 11.2673 21.5301 10.1693 20.6969 9.35941C19.8637 8.54956 18.7339 8.09405 17.5556 8.09286H13.8704C13.6009 8.07756 8.90556 7.75628 4.43426 4.11146C4.21834 3.9352 3.95515 3.8225 3.67562 3.78659C3.39608 3.75067 3.11181 3.79304 2.85619 3.90872C2.60057 4.02439 2.38422 4.20856 2.23255 4.4396C2.08089 4.67064 2.00021 4.93895 2 5.213V19.6123C2.00004 19.8864 2.08059 20.1549 2.23218 20.386C2.38378 20.6172 2.60011 20.8015 2.85577 20.9173C3.11142 21.0331 3.39577 21.0755 3.67539 21.0396C3.95501 21.0038 4.21828 20.891 4.43426 20.7147C7.93148 17.8637 11.5639 17.0465 13.1111 16.8179V19.6726C13.1108 19.9099 13.1708 20.1435 13.2858 20.3528C13.4009 20.5621 13.5673 20.7405 13.7704 20.8722L14.7889 21.5319C14.9858 21.6596 15.2112 21.7396 15.4465 21.7652C15.6817 21.7908 15.9198 21.7613 16.1408 21.6791C16.3619 21.5968 16.5595 21.4643 16.717 21.2926C16.8745 21.1209 16.9874 20.9151 17.0463 20.6922L18.1361 16.7C19.2053 16.5618 20.1865 16.0508 20.8972 15.2622C21.6079 14.4736 21.9998 13.461 22 12.4126ZM3.48148 19.606V5.213C7.44537 8.44474 11.5028 9.2628 13.1111 9.46439V15.3573C11.5046 15.5625 7.44815 16.3788 3.48148 19.606ZM15.6111 20.326V20.3359L14.5926 19.6762V16.7324H16.5926L15.6111 20.326ZM17.5556 15.2925H14.5926V9.53279H17.5556C18.3414 9.53279 19.095 9.8362 19.6507 10.3763C20.2063 10.9164 20.5185 11.6489 20.5185 12.4126C20.5185 13.1764 20.2063 13.9089 19.6507 14.449C19.095 14.9891 18.3414 15.2925 17.5556 15.2925Z" fill="#989898"/>
</svg>
