<svg width="24" height="24" viewBox="0 0 24 24" fill="none" xmlns="http://www.w3.org/2000/svg">
<path d="M12 2C9.61389 2.00273 7.32629 2.95182 5.63905 4.63905C3.95182 6.32629 3.00273 8.61389 3 11C3 13.25 4.1775 16.1619 6.15094 18.7812C8.13656 21.4203 10.3228 23 12 23C13.6772 23 15.8634 21.4241 17.8491 18.7812C19.8225 16.1562 21 13.25 21 11C20.9973 8.61389 20.0482 6.32629 18.3609 4.63905C16.6737 2.95182 14.3861 2.00273 12 2ZM16.6509 17.8831C15.0225 20.0459 13.1541 21.5 12 21.5C10.8459 21.5 8.9775 20.0459 7.34906 17.8831C5.59219 15.5469 4.5 12.9097 4.5 11C4.5 9.01088 5.29018 7.10322 6.6967 5.6967C8.10322 4.29018 10.0109 3.5 12 3.5C13.9891 3.5 15.8968 4.29018 17.3033 5.6967C18.7098 7.10322 19.5 9.01088 19.5 11C19.5 12.9097 18.4078 15.5469 16.6509 17.8831ZM11.25 13.25C11.25 12.2554 10.8549 11.3016 10.1517 10.5983C9.44839 9.89509 8.49456 9.5 7.5 9.5C7.10218 9.5 6.72064 9.65804 6.43934 9.93934C6.15804 10.2206 6 10.6022 6 11C6 11.9946 6.39509 12.9484 7.09835 13.6517C7.80161 14.3549 8.75544 14.75 9.75 14.75C10.1478 14.75 10.5294 14.592 10.8107 14.3107C11.092 14.0294 11.25 13.6478 11.25 13.25ZM7.5 11C8.09674 11 8.66903 11.2371 9.09099 11.659C9.51295 12.081 9.75 12.6533 9.75 13.25C9.15326 13.25 8.58097 13.0129 8.15901 12.591C7.73705 12.169 7.5 11.5967 7.5 11ZM16.5 9.5C15.5054 9.5 14.5516 9.89509 13.8483 10.5983C13.1451 11.3016 12.75 12.2554 12.75 13.25C12.75 13.6478 12.908 14.0294 13.1893 14.3107C13.4706 14.592 13.8522 14.75 14.25 14.75C14.7425 14.75 15.2301 14.653 15.6851 14.4645C16.14 14.2761 16.5534 13.9999 16.9017 13.6517C17.2499 13.3034 17.5261 12.89 17.7145 12.4351C17.903 11.9801 18 11.4925 18 11C18 10.6022 17.842 10.2206 17.5607 9.93934C17.2794 9.65804 16.8978 9.5 16.5 9.5ZM14.25 13.25C14.25 12.6533 14.4871 12.081 14.909 11.659C15.331 11.2371 15.9033 11 16.5 11C16.5 11.5967 16.2629 12.169 15.841 12.591C15.419 13.0129 14.8467 13.25 14.25 13.25ZM14.25 17.75C14.25 17.9489 14.171 18.1397 14.0303 18.2803C13.8897 18.421 13.6989 18.5 13.5 18.5H10.5C10.3011 18.5 10.1103 18.421 9.96967 18.2803C9.82902 18.1397 9.75 17.9489 9.75 17.75C9.75 17.5511 9.82902 17.3603 9.96967 17.2197C10.1103 17.079 10.3011 17 10.5 17H13.5C13.6989 17 13.8897 17.079 14.0303 17.2197C14.171 17.3603 14.25 17.5511 14.25 17.75Z" fill="white"/>
</svg>
