<svg width="25" height="24" viewBox="0 0 25 24" fill="none" xmlns="http://www.w3.org/2000/svg">
<path d="M12.5 3C17.4706 3 21.5 7.02944 21.5 12C21.5 16.9706 17.4706 21 12.5 21C7.52944 21 3.5 16.9706 3.5 12C3.5 7.02944 7.52944 3 12.5 3ZM12.5 5C8.63401 5 5.5 8.13401 5.5 12C5.5 15.866 8.63401 19 12.5 19C16.366 19 19.5 15.866 19.5 12C19.5 8.13401 16.366 5 12.5 5ZM12.5 13C13.4652 13 14.2091 13.2244 14.8301 13.5771C15.2751 13.83 15.6454 14.145 15.9639 14.4375L16.2656 14.7197L16.3203 14.7773C16.5764 15.0719 16.5585 15.5057 16.2656 15.7803C15.9728 16.0548 15.5095 16.0722 15.1953 15.832L15.1348 15.7803L14.8369 15.5039C14.5522 15.2429 14.2981 15.0293 14.001 14.8604C13.632 14.6507 13.175 14.5 12.5 14.5C11.825 14.5 11.368 14.6507 10.999 14.8604C10.6029 15.0855 10.2826 15.389 9.86523 15.7803C9.55279 16.073 9.04675 16.0731 8.73438 15.7803C8.42195 15.4874 8.42195 15.0126 8.73438 14.7197C9.11682 14.3612 9.57646 13.9144 10.1699 13.5771C10.7908 13.2244 11.5349 13 12.5 13ZM10 8C10.8284 8 11.5 8.89543 11.5 10C11.5 11.1046 10.8284 12 10 12C9.17157 12 8.5 11.1046 8.5 10C8.5 8.89543 9.17157 8 10 8ZM15 8C15.8284 8 16.5 8.89543 16.5 10C16.5 11.1046 15.8284 12 15 12C14.1716 12 13.5 11.1046 13.5 10C13.5 8.89543 14.1716 8 15 8Z" fill="white"/>
</svg>
