<svg width="24" height="24" viewBox="0 0 24 24" fill="none" xmlns="http://www.w3.org/2000/svg">
<path d="M21.2 10.9161H9.80968L20.6001 8.09659C20.7022 8.06995 20.798 8.02356 20.8819 7.9601C20.9659 7.89663 21.0363 7.81734 21.0891 7.7268C21.1419 7.63627 21.176 7.53628 21.1896 7.43261C21.2031 7.32894 21.1958 7.22364 21.168 7.12278L20.3521 4.15387C20.2398 3.75444 19.973 3.41488 19.6096 3.20872C19.2461 3.00255 18.8152 2.9464 18.4102 3.05241L3.18206 7.03075C2.9793 7.08284 2.78907 7.17444 2.62252 7.30019C2.45598 7.42594 2.31645 7.5833 2.21211 7.76308C2.10719 7.94065 2.0394 8.13728 2.01278 8.34129C1.98615 8.5453 2.00123 8.75252 2.05712 8.95064L2.80108 11.6642C2.80108 11.6781 2.80108 11.6929 2.80108 11.7078V20.4166C2.80108 20.8365 2.96964 21.2393 3.26968 21.5362C3.56972 21.8332 3.97667 22 4.40099 22H20.4001C20.8244 22 21.2314 21.8332 21.5314 21.5362C21.8314 21.2393 22 20.8365 22 20.4166V11.7078C22 11.4978 21.9157 11.2964 21.7657 11.148C21.6157 10.9995 21.4122 10.9161 21.2 10.9161ZM18.8162 4.58239L19.4161 6.76652L17.1543 7.3603L14.3424 5.75313L18.8162 4.58239ZM12.1476 6.32415L14.9594 7.93132L11.2656 8.89621L8.45376 7.29102L12.1476 6.32415ZM4.208 10.7399L3.60803 8.55479L6.25788 7.86204L9.06973 9.47119L4.208 10.7399ZM20.4001 20.4166H4.40099V12.4995H20.4001V20.4166Z" fill="#989898"/>
</svg>
