<svg width="25" height="25" viewBox="0 0 25 25" fill="none" xmlns="http://www.w3.org/2000/svg">
<path d="M17.5 2.45215C19.1569 2.45215 20.5 3.79529 20.5 5.45215V19.4521C20.5 21.109 19.1569 22.4521 17.5 22.4521H7.5C5.84315 22.4521 4.5 21.109 4.5 19.4521V5.45215C4.5 3.79529 5.84315 2.45215 7.5 2.45215H17.5ZM6.5 19.4521C6.5 20.0044 6.94772 20.4521 7.5 20.4521H17.5C18.0523 20.4521 18.5 20.0044 18.5 19.4521V12.4521H6.5V19.4521ZM10.5 13.4521C11.0523 13.4521 11.5 13.8999 11.5 14.4521V15.4521H12.5C13.0523 15.4521 13.5 15.8999 13.5 16.4521C13.5 17.0044 13.0523 17.4521 12.5 17.4521H11.5V18.4521C11.5 19.0044 11.0523 19.4521 10.5 19.4521C9.94772 19.4521 9.5 19.0044 9.5 18.4521V17.4521H8.5C7.94772 17.4521 7.5 17.0044 7.5 16.4521C7.5 15.8999 7.94772 15.4521 8.5 15.4521H9.5V14.4521C9.5 13.8999 9.94772 13.4521 10.5 13.4521ZM15.5 17.4521C16.0523 17.4521 16.5 17.8999 16.5 18.4521C16.5 19.0044 16.0523 19.4521 15.5 19.4521C14.9477 19.4521 14.5 19.0044 14.5 18.4521C14.5 17.8999 14.9477 17.4521 15.5 17.4521ZM16.5 14.4521C17.0523 14.4521 17.5 14.8999 17.5 15.4521C17.5 16.0044 17.0523 16.4521 16.5 16.4521C15.9477 16.4521 15.5 16.0044 15.5 15.4521C15.5 14.8999 15.9477 14.4521 16.5 14.4521ZM7.5 4.45215C6.94772 4.45215 6.5 4.89986 6.5 5.45215V10.4521H7.5V6.45215C7.5 5.89986 7.94772 5.45215 8.5 5.45215H16.5C17.0523 5.45215 17.5 5.89986 17.5 6.45215V10.4521H18.5V5.45215C18.5 4.89986 18.0523 4.45215 17.5 4.45215H7.5ZM9.5 10.4521H15.5V7.45215H9.5V10.4521Z" fill="#989898"/>
</svg>
