<svg width="24" height="24" viewBox="0 0 24 24" fill="none" xmlns="http://www.w3.org/2000/svg">
<path d="M2 5.73681C2 5.5414 2.07804 5.35399 2.21696 5.21581C2.35587 5.07763 2.54428 5 2.74074 5H19.037C19.2335 5 19.4219 5.07763 19.5608 5.21581C19.6997 5.35399 19.7778 5.5414 19.7778 5.73681C19.7778 5.93223 19.6997 6.11964 19.5608 6.25782C19.4219 6.396 19.2335 6.47363 19.037 6.47363H2.74074C2.54428 6.47363 2.35587 6.396 2.21696 6.25782C2.07804 6.11964 2 5.93223 2 5.73681ZM2.74074 12.3681H8.66667C8.86312 12.3681 9.05153 12.2905 9.19045 12.1523C9.32936 12.0142 9.40741 11.8267 9.40741 11.6313C9.40741 11.4359 9.32936 11.2485 9.19045 11.1103C9.05153 10.9721 8.86312 10.8945 8.66667 10.8945H2.74074C2.54428 10.8945 2.35587 10.9721 2.21696 11.1103C2.07804 11.2485 2 11.4359 2 11.6313C2 11.8267 2.07804 12.0142 2.21696 12.1523C2.35587 12.2905 2.54428 12.3681 2.74074 12.3681ZM10.1481 16.789H2.74074C2.54428 16.789 2.35587 16.8667 2.21696 17.0048C2.07804 17.143 2 17.3304 2 17.5258C2 17.7213 2.07804 17.9087 2.21696 18.0469C2.35587 18.185 2.54428 18.2627 2.74074 18.2627H10.1481C10.3446 18.2627 10.533 18.185 10.6719 18.0469C10.8108 17.9087 10.8889 17.7213 10.8889 17.5258C10.8889 17.3304 10.8108 17.143 10.6719 17.0048C10.533 16.8667 10.3446 16.789 10.1481 16.789ZM22 13.105C22 16.4685 17.3444 18.8226 17.1463 18.9221C17.0434 18.9733 16.9299 19 16.8148 19C16.6997 19 16.5862 18.9733 16.4833 18.9221C16.2852 18.8226 11.6296 16.4685 11.6296 13.105C11.6301 12.5065 11.8137 11.9224 12.1561 11.4303C12.4984 10.9382 12.9833 10.5614 13.5462 10.35C14.109 10.1387 14.7232 10.1028 15.3071 10.2471C15.891 10.3914 16.4169 10.7091 16.8148 11.1579C17.2128 10.7091 17.7386 10.3914 18.3225 10.2471C18.9064 10.1028 19.5206 10.1387 20.0835 10.35C20.6463 10.5614 21.1312 10.9382 21.4735 11.4303C21.8159 11.9224 21.9995 12.5065 22 13.105ZM20.5185 13.105C20.5185 12.7141 20.3624 12.3393 20.0846 12.0629C19.8068 11.7866 19.4299 11.6313 19.037 11.6313C18.6441 11.6313 18.2673 11.7866 17.9895 12.0629C17.7116 12.3393 17.5556 12.7141 17.5556 13.105C17.5556 13.3004 17.4775 13.4878 17.3386 13.626C17.1997 13.7641 17.0113 13.8418 16.8148 13.8418C16.6184 13.8418 16.4299 13.7641 16.291 13.626C16.1521 13.4878 16.0741 13.3004 16.0741 13.105C16.0741 12.7141 15.918 12.3393 15.6402 12.0629C15.3623 11.7866 14.9855 11.6313 14.5926 11.6313C14.1997 11.6313 13.8229 11.7866 13.545 12.0629C13.2672 12.3393 13.1111 12.7141 13.1111 13.105C13.1111 14.9636 15.538 16.7098 16.8148 17.4273C18.0917 16.7107 20.5185 14.9645 20.5185 13.105Z" fill="white"/>
</svg>
