<svg width="25" height="25" viewBox="0 0 25 25" fill="none" xmlns="http://www.w3.org/2000/svg">
<path d="M12.5001 3.97607C12.8513 3.97609 13.1768 4.16032 13.3575 4.46143L22.3575 19.4614C22.5429 19.7703 22.5477 20.1557 22.3702 20.4692C22.1927 20.7825 21.8602 20.9761 21.5001 20.9761H3.50012C3.14001 20.9761 2.80757 20.7825 2.63 20.4692C2.4525 20.1557 2.45734 19.7704 2.6427 19.4614L11.6427 4.46143L11.7169 4.354C11.9051 4.11703 12.1928 3.97607 12.5001 3.97607ZM5.26672 18.9761H19.7335L12.5001 6.91943L5.26672 18.9761ZM12.5001 15.9761C13.0524 15.9761 13.5001 16.4238 13.5001 16.9761C13.5001 17.5283 13.0524 17.976 12.5001 17.9761C11.9478 17.9761 11.5001 17.5284 11.5001 16.9761C11.5001 16.4238 11.9478 15.9761 12.5001 15.9761ZM12.5001 9.97607C13.0524 9.97612 13.5001 10.4238 13.5001 10.9761V13.9761C13.5001 14.5283 13.0524 14.976 12.5001 14.9761C11.9478 14.9761 11.5001 14.5284 11.5001 13.9761V10.9761C11.5001 10.4238 11.9478 9.97607 12.5001 9.97607Z" fill="white"/>
</svg>
