<svg width="24" height="25" viewBox="0 0 24 25" fill="none" xmlns="http://www.w3.org/2000/svg">
<path fill-rule="evenodd" clip-rule="evenodd" d="M6.35159 15.8071C6.57662 16.0321 6.88179 16.1585 7.19999 16.1585C7.51818 16.1585 7.82335 16.0321 8.04839 15.8071L12 11.8555L15.9516 15.8071C16.0623 15.9217 16.1947 16.0131 16.3411 16.076C16.4875 16.1389 16.645 16.172 16.8043 16.1734C16.9636 16.1748 17.1217 16.1444 17.2691 16.0841C17.4166 16.0238 17.5506 15.9347 17.6633 15.822C17.7759 15.7093 17.865 15.5753 17.9254 15.4279C17.9857 15.2804 18.0161 15.1224 18.0147 14.963C18.0133 14.8037 17.9802 14.6462 17.9173 14.4998C17.8544 14.3534 17.763 14.221 17.6484 14.1103L12.8484 9.31032C12.6234 9.08535 12.3182 8.95897 12 8.95897C11.6818 8.95897 11.3766 9.08535 11.1516 9.31032L6.35159 14.1103C6.12662 14.3353 6.00024 14.6405 6.00024 14.9587C6.00024 15.2769 6.12662 15.5821 6.35159 15.8071Z" fill="white"/>
</svg>
