<svg width="24" height="24" viewBox="0 0 24 24" fill="none" xmlns="http://www.w3.org/2000/svg">
<path d="M12 12C13.0609 12 14.0783 11.5786 14.8284 10.8284C15.5786 10.0783 16 9.06087 16 8C16 6.93913 15.5786 5.92172 14.8284 5.17157C14.0783 4.42143 13.0609 4 12 4C10.9391 4 9.92172 4.42143 9.17157 5.17157C8.42143 5.92172 8 6.93913 8 8C8 9.06087 8.42143 10.0783 9.17157 10.8284C9.92172 11.5786 10.9391 12 12 12Z" stroke="#989898" stroke-width="1.5" stroke-linecap="round" stroke-linejoin="round"/>
<path d="M22 17.28C21.9999 17.8817 21.762 18.459 21.338 18.886C20.362 19.87 19.415 20.896 18.402 21.844C18.2889 21.9473 18.1403 22.0032 17.9871 22C17.8339 21.9969 17.6878 21.9349 17.579 21.827L14.661 18.887C14.2366 18.4599 13.9984 17.8822 13.9984 17.28C13.9984 16.6779 14.2366 16.1002 14.661 15.673C14.8727 15.4596 15.1245 15.2903 15.402 15.1747C15.6794 15.0592 15.977 14.9997 16.2775 14.9997C16.5781 14.9997 16.8757 15.0592 17.1531 15.1747C17.4305 15.2903 17.6824 15.4596 17.894 15.673L18 15.78L18.106 15.673C18.4239 15.3524 18.83 15.1335 19.2725 15.0442C19.7151 14.9548 20.1743 14.9991 20.5917 15.1713C21.009 15.3436 21.3658 15.636 21.6165 16.0115C21.8673 16.387 22.0008 16.8285 22 17.28Z" stroke="#989898" stroke-width="1.5" stroke-linejoin="round"/>
<path d="M5 20V19C4.99976 17.819 5.29833 16.6571 5.86794 15.6225C6.43754 14.5879 7.25965 13.7142 8.25773 13.0828C9.25582 12.4515 10.3974 12.0829 11.5763 12.0114C12.7551 11.9399 13.9329 12.1678 15 12.674" stroke="#989898" stroke-width="1.5" stroke-linecap="round" stroke-linejoin="round"/>
</svg>
