<svg width="25" height="24" viewBox="0 0 25 24" fill="none" xmlns="http://www.w3.org/2000/svg">
<path d="M12.5 3C17.4706 3 21.5 7.02944 21.5 12C21.5 16.9706 17.4706 21 12.5 21C7.52944 21 3.5 16.9706 3.5 12C3.5 7.02944 7.52944 3 12.5 3ZM12.5 5C8.63401 5 5.5 8.13401 5.5 12C5.5 15.866 8.63401 19 12.5 19C16.366 19 19.5 15.866 19.5 12C19.5 8.13401 16.366 5 12.5 5ZM15.5 14C16.0523 14 16.5 14.4477 16.5 15C16.5 15.5523 16.0523 16 15.5 16H9.5C8.94772 16 8.5 15.5523 8.5 15C8.5 14.4477 8.94772 14 9.5 14H15.5ZM10 8C10.8284 8 11.5 8.89543 11.5 10C11.5 11.1046 10.8284 12 10 12C9.17157 12 8.5 11.1046 8.5 10C8.5 8.89543 9.17157 8 10 8ZM15 8C15.8284 8 16.5 8.89543 16.5 10C16.5 11.1046 15.8284 12 15 12C14.1716 12 13.5 11.1046 13.5 10C13.5 8.89543 14.1716 8 15 8Z" fill="white"/>
</svg>
