<svg width="24" height="25" viewBox="0 0 24 25" fill="none" xmlns="http://www.w3.org/2000/svg">
<path d="M10.102 8.27992C9.7173 8.16718 9.31784 8.11291 8.917 8.11892C6.999 8.11892 4.75 9.81392 4.75 13.4779C4.75 16.8379 7.108 20.6879 8.551 21.2999C8.879 21.4399 9.282 21.5269 9.635 21.4929C10.342 21.4229 10.983 21.0719 11.658 20.8709C11.886 20.8329 12.158 20.7969 12.377 20.7959C12.617 20.7939 12.887 20.8559 13.151 20.9159C13.866 21.0799 14.656 21.5659 15.406 21.4929C15.673 21.4669 16.039 21.3059 16.152 21.2539L16.222 21.2239C17.072 20.8809 18.21 19.3979 18.981 17.5209C19.143 17.1249 18.929 16.6879 18.577 16.4439C17.578 15.7499 16.914 14.5099 16.914 13.2489C16.914 12.2799 17.227 11.3949 17.821 10.7259L17.841 10.7029C17.9839 10.53 18.1341 10.3632 18.291 10.2029C18.546 9.95492 18.617 9.55792 18.373 9.29892C17.565 8.44492 16.541 8.02192 15.609 8.02192C15.2345 8.01607 14.8613 8.0687 14.503 8.17792C14.365 8.21092 13.725 8.36992 13.281 8.53292C13.024 8.60392 12.646 8.69992 12.471 8.74292C12.4084 8.75944 12.3438 8.76718 12.279 8.76592C11.544 8.74192 10.809 8.46292 10.102 8.27892V8.27992Z" stroke="#989898" stroke-width="1.5" stroke-linejoin="round"/>
<path d="M13.86 5.67795C13.127 6.55595 11.885 6.72495 11.885 6.72495C11.885 6.72495 11.835 5.46895 12.569 4.58995C13.303 3.71095 14.545 3.54395 14.545 3.54395C14.545 3.54395 14.595 4.79995 13.861 5.67795H13.86Z" fill="#989898" stroke="#989898" stroke-linejoin="round"/>
</svg>
