<svg width="24" height="24" viewBox="0 0 24 24" fill="none" xmlns="http://www.w3.org/2000/svg">
<path d="M13.4648 3C14.1335 3.00001 14.758 3.33424 15.1289 3.89062L16.5352 6H20C20.5523 6 21 6.44772 21 7C21 7.55228 20.5523 8 20 8H18.998C18.998 8.02746 18.9984 8.05515 18.9961 8.08301L18.1494 18.249C18.0199 19.8038 16.7202 20.9998 15.1602 21H8.83984C7.27977 20.9998 5.98015 19.8038 5.85059 18.249L5.00391 8.08301C5.00159 8.05515 5.00198 8.02746 5.00195 8H4C3.44772 8 3 7.55228 3 7C3 6.44772 3.44772 6 4 6H7.46484L8.87109 3.89062C9.24202 3.33425 9.86648 3.00001 10.5352 3H13.4648ZM7.84375 18.083C7.88693 18.6012 8.31994 18.9998 8.83984 19H15.1602C15.68 18.9998 16.1131 18.6012 16.1562 18.083L16.9971 8H7.00293L7.84375 18.083ZM10 10C10.5523 10 11 10.4477 11 11V16C11 16.5523 10.5523 17 10 17C9.44772 17 9 16.5523 9 16V11C9 10.4477 9.44772 10 10 10ZM14 10C14.5523 10 15 10.4477 15 11V16C15 16.5523 14.5523 17 14 17C13.4477 17 13 16.5523 13 16V11C13 10.4477 13.4477 10 14 10ZM9.86816 6H14.1318L13.4648 5H10.5352L9.86816 6Z" fill="white"/>
</svg>
