<svg width="24" height="25" viewBox="0 0 24 25" fill="none" xmlns="http://www.w3.org/2000/svg">
<path d="M11 15.5L8 12.5M8 12.5L11 9.5M8 12.5H16M3 12.5C3 11.3181 3.23279 10.1478 3.68508 9.05585C4.13738 7.96392 4.80031 6.97177 5.63604 6.13604C6.47177 5.30031 7.46392 4.63738 8.55585 4.18508C9.64778 3.73279 10.8181 3.5 12 3.5C13.1819 3.5 14.3522 3.73279 15.4442 4.18508C16.5361 4.63738 17.5282 5.30031 18.364 6.13604C19.1997 6.97177 19.8626 7.96392 20.3149 9.05585C20.7672 10.1478 21 11.3181 21 12.5C21 14.8869 20.0518 17.1761 18.364 18.864C16.6761 20.5518 14.3869 21.5 12 21.5C9.61305 21.5 7.32387 20.5518 5.63604 18.864C3.94821 17.1761 3 14.8869 3 12.5Z" stroke="#989898" stroke-width="1.5" stroke-linecap="round" stroke-linejoin="round"/>
</svg>
