<svg width="25" height="25" viewBox="0 0 25 25" fill="none" xmlns="http://www.w3.org/2000/svg">
<path d="M12.5 2.22583C10.5222 2.22583 8.58879 2.81232 6.9443 3.91113C5.29981 5.00995 4.01809 6.57173 3.26121 8.399C2.50433 10.2263 2.3063 12.2369 2.69215 14.1767C3.078 16.1165 4.03041 17.8984 5.42894 19.2969C6.82746 20.6954 8.60929 21.6478 10.5491 22.0337C12.4889 22.4195 14.4996 22.2215 16.3268 21.4646C18.1541 20.7077 19.7159 19.426 20.8147 17.7815C21.9135 16.137 22.5 14.2036 22.5 12.2258C22.4971 9.57457 21.4425 7.03274 19.5678 5.15802C17.6931 3.28329 15.1513 2.22878 12.5 2.22583ZM12.5 20.2258C10.9178 20.2258 9.37104 19.7566 8.05544 18.8776C6.73985 17.9985 5.71447 16.7491 5.10897 15.2873C4.50347 13.8255 4.34504 12.217 4.65372 10.6651C4.9624 9.11326 5.72433 7.6878 6.84315 6.56898C7.96197 5.45016 9.38743 4.68823 10.9393 4.37955C12.4911 4.07087 14.0997 4.22929 15.5615 4.83479C17.0233 5.4403 18.2727 6.46567 19.1518 7.78127C20.0308 9.09686 20.5 10.6436 20.5 12.2258C20.4976 14.3468 19.6539 16.3802 18.1542 17.88C16.6544 19.3798 14.621 20.2234 12.5 20.2258ZM12.5 11.7258C12.2348 11.7258 11.9804 11.8312 11.7929 12.0187C11.6054 12.2063 11.5 12.4606 11.5 12.7258V15.7258C11.5 15.991 11.6054 16.2454 11.7929 16.4329C11.9804 16.6205 12.2348 16.7258 12.5 16.7258C12.7652 16.7258 13.0196 16.6205 13.2071 16.4329C13.3946 16.2454 13.5 15.991 13.5 15.7258V12.7258C13.5 12.4606 13.3946 12.2063 13.2071 12.0187C13.0196 11.8312 12.7652 11.7258 12.5 11.7258ZM12.5 7.72583C12.2528 7.72583 12.0111 7.79914 11.8055 7.93649C11.6 8.07384 11.4398 8.26907 11.3452 8.49748C11.2505 8.72588 11.2258 8.97722 11.274 9.21969C11.3223 9.46217 11.4413 9.6849 11.6161 9.85971C11.7909 10.0345 12.0137 10.1536 12.2561 10.2018C12.4986 10.25 12.75 10.2253 12.9784 10.1307C13.2068 10.0361 13.402 9.87585 13.5393 9.67029C13.6767 9.46473 13.75 9.22306 13.75 8.97583C13.75 8.64431 13.6183 8.32637 13.3839 8.09195C13.1495 7.85753 12.8315 7.72583 12.5 7.72583Z" fill="#989898"/>
</svg>
