<svg width="24" height="24" viewBox="0 0 24 24" fill="none" xmlns="http://www.w3.org/2000/svg">
<path d="M13.9961 7.58887C13.9563 6.78558 13.6193 6.02356 13.0479 5.45215C12.4764 4.88074 11.7144 4.54375 10.9111 4.50391L10.75 4.5C9.88805 4.5 9.06164 4.84266 8.45215 5.45215C7.84266 6.06164 7.5 6.88805 7.5 7.75L7.50391 7.91113C7.54375 8.71442 7.88074 9.47644 8.45215 10.0479C9.06164 10.6573 9.88805 11 10.75 11L10.9111 10.9961C11.7144 10.9563 12.4764 10.6193 13.0479 10.0479C13.6573 9.43836 14 8.61195 14 7.75L13.9961 7.58887ZM15.4941 7.98535C15.4359 9.15944 14.9436 10.2732 14.1084 11.1084C13.2732 11.9436 12.1594 12.4359 10.9854 12.4941L10.75 12.5C9.49022 12.5 8.2824 11.9992 7.3916 11.1084C6.55643 10.2732 6.06406 9.15944 6.00586 7.98535L6 7.75C6 6.49022 6.5008 5.2824 7.3916 4.3916C8.2824 3.5008 9.49022 3 10.75 3L10.9854 3.00586C12.1594 3.06406 13.2732 3.55643 14.1084 4.3916C14.9992 5.2824 15.5 6.49022 15.5 7.75L15.4941 7.98535Z" fill="white"/>
<path d="M3 19.7496V18.7496C2.99984 17.4423 3.33054 16.1564 3.96094 15.0113C4.59155 13.8659 5.50147 12.8978 6.60645 12.1988C7.71147 11.4997 8.97608 11.0924 10.2812 11.0132C11.5863 10.9341 12.89 11.1863 14.0713 11.7466C14.4455 11.9241 14.6053 12.3714 14.4277 12.7456C14.2614 13.0962 13.858 13.2584 13.5 13.1314L13.4287 13.1021L13.0664 12.9439C12.2127 12.6032 11.2928 12.4545 10.3721 12.5103C9.31952 12.5741 8.29935 12.9026 7.4082 13.4663C6.51728 14.03 5.78392 14.8104 5.27539 15.7339C4.76687 16.6576 4.49984 17.6952 4.5 18.7496V19.7496C4.5 20.1638 4.16421 20.4996 3.75 20.4996C3.33579 20.4996 3 20.1638 3 19.7496Z" fill="white"/>
<path d="M15.8306 14.1335C15.8306 13.531 16.3191 13.0425 16.9216 13.0425C17.5242 13.0425 18.0126 13.531 18.0126 14.1335V20.6795C18.0126 21.2821 17.5242 21.7705 16.9216 21.7705C16.3191 21.7705 15.8306 21.2821 15.8306 20.6795V14.1335Z" fill="white"/>
<path d="M20.1946 16.3157C20.7972 16.3157 21.2856 16.8041 21.2856 17.4067C21.2856 18.0092 20.7972 18.4977 20.1946 18.4977H13.6486C13.0461 18.4977 12.5576 18.0092 12.5576 17.4067C12.5576 16.8041 13.0461 16.3157 13.6486 16.3157H20.1946Z" fill="white"/>
</svg>
