<svg width="24" height="25" viewBox="0 0 24 25" fill="none" xmlns="http://www.w3.org/2000/svg">
<path d="M6.133 21.5C4.955 21.5 4 20.52 4 19.31V10.508C4 9.84303 4.295 9.21303 4.8 8.79803L10.667 3.98003C11.0419 3.66961 11.5133 3.49976 12 3.49976C12.4867 3.49976 12.9581 3.66961 13.333 3.98003L19.199 8.79803C19.705 9.21303 20 9.84303 20 10.508V19.31C20 20.52 19.045 21.5 17.867 21.5H6.133Z" stroke="#989898" stroke-width="1.5" stroke-linecap="round" stroke-linejoin="round"/>
<path d="M9.5 21.5V16C9.5 15.4696 9.71071 14.9609 10.0858 14.5858C10.4609 14.2107 10.9696 14 11.5 14H12.5C13.0304 14 13.5391 14.2107 13.9142 14.5858C14.2893 14.9609 14.5 15.4696 14.5 16V21.5" stroke="#989898" stroke-width="1.5" stroke-linecap="round" stroke-linejoin="round"/>
</svg>
