<svg width="24" height="25" viewBox="0 0 24 25" fill="none" xmlns="http://www.w3.org/2000/svg">
<path d="M11 4.27417V3.52417C11 3.32526 11.079 3.13449 11.2197 2.99384C11.3603 2.85319 11.5511 2.77417 11.75 2.77417C11.9489 2.77417 12.1397 2.85319 12.2803 2.99384C12.421 3.13449 12.5 3.32526 12.5 3.52417V4.27417C12.5 4.47308 12.421 4.66385 12.2803 4.8045C12.1397 4.94515 11.9489 5.02417 11.75 5.02417C11.5511 5.02417 11.3603 4.94515 11.2197 4.8045C11.079 4.66385 11 4.47308 11 4.27417ZM18.5 7.27417C18.5985 7.27425 18.6961 7.25491 18.7871 7.21727C18.8782 7.17963 18.9609 7.12442 19.0306 7.05479L19.7806 6.30479C19.9214 6.16406 20.0004 5.97319 20.0004 5.77417C20.0004 5.57515 19.9214 5.38428 19.7806 5.24355C19.6399 5.10281 19.449 5.02375 19.25 5.02375C19.051 5.02375 18.8601 5.10281 18.7194 5.24355L17.9694 5.99355C17.8644 6.09844 17.7928 6.23213 17.7639 6.37769C17.7349 6.52325 17.7497 6.67415 17.8065 6.81126C17.8633 6.94838 17.9596 7.06556 18.083 7.14796C18.2065 7.23036 18.3516 7.27429 18.5 7.27417ZM4.46938 7.05479C4.53906 7.12448 4.62178 7.17975 4.71283 7.21746C4.80387 7.25518 4.90145 7.27459 5 7.27459C5.09855 7.27459 5.19613 7.25518 5.28717 7.21746C5.37822 7.17975 5.46094 7.12448 5.53062 7.05479C5.60031 6.98511 5.65558 6.90239 5.6933 6.81134C5.73101 6.7203 5.75042 6.62272 5.75042 6.52417C5.75042 6.42562 5.73101 6.32804 5.6933 6.237C5.65558 6.14595 5.60031 6.06323 5.53062 5.99355L4.78062 5.24355C4.63989 5.10281 4.44902 5.02375 4.25 5.02375C4.05098 5.02375 3.86011 5.10281 3.71938 5.24355C3.57864 5.38428 3.49958 5.57515 3.49958 5.77417C3.49958 5.97319 3.57864 6.16406 3.71938 6.30479L4.46938 7.05479ZM12.6256 9.53448C12.5281 9.51723 12.428 9.51948 12.3314 9.5411C12.2347 9.56272 12.1432 9.60328 12.0623 9.66044C11.9814 9.7176 11.9126 9.79023 11.8599 9.87414C11.8072 9.95804 11.7716 10.0515 11.7553 10.1493C11.739 10.247 11.7421 10.347 11.7646 10.4435C11.7872 10.5399 11.8286 10.631 11.8865 10.7114C11.9444 10.7918 12.0176 10.8599 12.102 10.9118C12.1864 10.9637 12.2803 10.9984 12.3781 11.0139C14.1566 11.3129 15.5 12.9292 15.5 14.7742C15.5 14.9731 15.579 15.1638 15.7197 15.3045C15.8603 15.4452 16.0511 15.5242 16.25 15.5242C16.4489 15.5242 16.6397 15.4452 16.7803 15.3045C16.921 15.1638 17 14.9731 17 14.7742C17 12.2054 15.1184 9.95261 12.6238 9.53448H12.6256ZM21.5 19.2742V21.5242C21.5 21.922 21.342 22.3035 21.0607 22.5848C20.7794 22.8661 20.3978 23.0242 20 23.0242H3.5C3.10218 23.0242 2.72064 22.8661 2.43934 22.5848C2.15804 22.3035 2 21.922 2 21.5242V19.2742C2 18.8763 2.15804 18.4948 2.43934 18.2135C2.72064 17.9322 3.10218 17.7742 3.5 17.7742V14.7742C3.49997 13.6855 3.71542 12.6075 4.13395 11.6025C4.55247 10.5974 5.16579 9.68513 5.93853 8.91822C6.71128 8.15131 7.62818 7.54493 8.63638 7.13404C9.64458 6.72316 10.7241 6.51588 11.8128 6.52417C16.3269 6.55792 20 10.3014 20 14.8679V17.7742C20.3978 17.7742 20.7794 17.9322 21.0607 18.2135C21.342 18.4948 21.5 18.8763 21.5 19.2742ZM5 17.7742H18.5V14.8679C18.5 11.1179 15.4953 8.05136 11.8016 8.02417H11.75C9.95979 8.02417 8.2429 8.73533 6.97703 10.0012C5.71116 11.2671 5 12.984 5 14.7742V17.7742ZM20 21.5242V19.2742H3.5V21.5242H20Z" fill="#989898"/>
</svg>
