<svg width="24" height="25" viewBox="0 0 24 25" fill="none" xmlns="http://www.w3.org/2000/svg">
<g clip-path="url(#clip0_3446_5191)">
<path d="M12.2354 3.68213C13.4094 3.74033 14.5232 4.2327 15.3584 5.06787C16.2492 5.95867 16.75 7.16649 16.75 8.42627L16.7441 8.66162C16.6859 9.83571 16.1936 10.9495 15.3584 11.7847C15.2005 11.9426 15.0319 12.0874 14.8555 12.2202C15.0126 12.2825 15.168 12.3506 15.3213 12.4233C15.6954 12.6009 15.8552 13.0482 15.6777 13.4224C15.5113 13.7727 15.1078 13.935 14.75 13.8081L14.6787 13.7788L14.3164 13.6206C13.5808 13.327 12.796 13.1758 12.0039 13.1753L12 13.1763C11.9879 13.1763 11.9759 13.1754 11.9639 13.1753C11.85 13.176 11.7361 13.1801 11.6221 13.187C10.5695 13.2508 9.54934 13.5793 8.6582 14.1431C7.76737 14.7067 7.03388 15.4872 6.52539 16.4106C6.01699 17.3342 5.74984 18.372 5.75 19.4263V20.4263C5.74976 20.8403 5.41406 21.1763 5 21.1763C4.58594 21.1763 4.25024 20.8403 4.25 20.4263V19.4263C4.24984 18.1192 4.58066 16.8331 5.21094 15.688C5.84151 14.5427 6.75156 13.5745 7.85645 12.8755C8.26599 12.6164 8.69721 12.3963 9.14453 12.2192C8.9683 12.0865 8.79941 11.9425 8.6416 11.7847C7.80643 10.9495 7.31406 9.83571 7.25586 8.66162L7.25 8.42627C7.25 7.16649 7.7508 5.95867 8.6416 5.06787C9.5324 4.17707 10.7402 3.67627 12 3.67627L12.2354 3.68213ZM12 5.17627C11.138 5.17627 10.3116 5.51892 9.70215 6.12842C9.09266 6.73791 8.75 7.56432 8.75 8.42627L8.75391 8.5874C8.79375 9.39069 9.13074 10.1527 9.70215 10.7241C10.3068 11.3288 11.1249 11.6699 11.9795 11.6753C11.9967 11.6752 12.014 11.6752 12.0312 11.6753L12.1611 11.6724C12.9644 11.6325 13.7264 11.2955 14.2979 10.7241C14.9073 10.1146 15.25 9.28822 15.25 8.42627L15.2461 8.26514C15.2063 7.46185 14.8693 6.69982 14.2979 6.12842C13.7264 5.55701 12.9644 5.22002 12.1611 5.18018L12 5.17627Z" fill="#989898"/>
<path d="M15.086 14.997C15.512 14.5711 16.2026 14.5711 16.6286 14.997L18.172 16.5404L19.7146 14.9977C20.1407 14.5716 20.8312 14.5716 21.2573 14.9977C21.6832 15.4238 21.6833 16.1144 21.2573 16.5404L19.7146 18.083L21.2573 19.6257C21.6833 20.0517 21.6832 20.7422 21.2573 21.1683C20.8312 21.5944 20.1407 21.5944 19.7146 21.1683L18.172 19.6257L16.6286 21.169C16.2026 21.5949 15.512 21.5948 15.086 21.169C14.66 20.743 14.6601 20.0524 15.086 19.6264L16.6293 18.083L15.086 16.5397C14.66 16.1136 14.66 15.4231 15.086 14.997Z" fill="#989898"/>
</g>
<defs>
<clipPath id="clip0_3446_5191">
<rect width="24" height="24" fill="white" transform="translate(0 0.42627)"/>
</clipPath>
</defs>
</svg>
