<svg width="24" height="24" viewBox="0 0 24 24" fill="none" xmlns="http://www.w3.org/2000/svg">
<path d="M10.102 7.77992C9.7173 7.66718 9.31784 7.61291 8.917 7.61892C6.999 7.61892 4.75 9.31392 4.75 12.9779C4.75 16.3379 7.108 20.1879 8.551 20.7999C8.879 20.9399 9.282 21.0269 9.635 20.9929C10.342 20.9229 10.983 20.5719 11.658 20.3709C11.886 20.3329 12.158 20.2969 12.377 20.2959C12.617 20.2939 12.887 20.3559 13.151 20.4159C13.866 20.5799 14.656 21.0659 15.406 20.9929C15.673 20.9669 16.039 20.8059 16.152 20.7539L16.222 20.7239C17.072 20.3809 18.21 18.8979 18.981 17.0209C19.143 16.6249 18.929 16.1879 18.577 15.9439C17.578 15.2499 16.914 14.0099 16.914 12.7489C16.914 11.7799 17.227 10.8949 17.821 10.2259L17.841 10.2029C17.9839 10.03 18.1341 9.86321 18.291 9.70292C18.546 9.45492 18.617 9.05792 18.373 8.79892C17.565 7.94492 16.541 7.52192 15.609 7.52192C15.2345 7.51607 14.8613 7.5687 14.503 7.67792C14.365 7.71092 13.725 7.86992 13.281 8.03292C13.024 8.10392 12.646 8.19992 12.471 8.24292C12.4084 8.25944 12.3438 8.26718 12.279 8.26592C11.544 8.24192 10.809 7.96292 10.102 7.77892V7.77992Z" stroke="white" stroke-width="1.5" stroke-linejoin="round"/>
<path d="M13.86 5.17795C13.127 6.05595 11.885 6.22495 11.885 6.22495C11.885 6.22495 11.835 4.96895 12.569 4.08995C13.303 3.21095 14.545 3.04395 14.545 3.04395C14.545 3.04395 14.595 4.29995 13.861 5.17795H13.86Z" fill="white" stroke="white" stroke-linejoin="round"/>
</svg>
