<svg width="24" height="25" viewBox="0 0 24 25" fill="none" xmlns="http://www.w3.org/2000/svg">
<path d="M14.079 2C14.2378 2.00001 14.3925 2.05041 14.5208 2.14394C14.6491 2.23748 14.7445 2.36933 14.793 2.5205L15.618 5.084C15.9645 5.2535 16.296 5.444 16.6125 5.6585L19.2465 5.0915C19.4018 5.05834 19.5637 5.07534 19.7087 5.14003C19.8537 5.20473 19.9745 5.31379 20.0535 5.4515L22.1325 9.05C22.2119 9.18763 22.2456 9.34693 22.2286 9.5049C22.2116 9.66288 22.1449 9.81139 22.038 9.929L20.2305 11.924C20.2569 12.3065 20.2569 12.6905 20.2305 13.073L22.038 15.071C22.1449 15.1886 22.2116 15.3371 22.2286 15.4951C22.2456 15.6531 22.2119 15.8124 22.1325 15.95L20.0535 19.55C19.9742 19.6874 19.8534 19.7962 19.7084 19.8606C19.5634 19.925 19.4017 19.9418 19.2465 19.9085L16.6125 19.3415C16.2975 19.5545 15.9645 19.7465 15.6195 19.916L14.793 22.4795C14.7445 22.6307 14.6491 22.7625 14.5208 22.8561C14.3925 22.9496 14.2378 23 14.079 23H9.92104C9.76225 23 9.60757 22.9496 9.47925 22.8561C9.35094 22.7625 9.25563 22.6307 9.20704 22.4795L8.38354 19.9175C8.03798 19.7485 7.70467 19.5555 7.38604 19.34L4.75354 19.9085C4.59824 19.9417 4.43642 19.9247 4.29139 19.86C4.14637 19.7953 4.02562 19.6862 3.94654 19.5485L1.86754 15.95C1.78815 15.8124 1.75453 15.6531 1.77151 15.4951C1.78849 15.3371 1.85521 15.1886 1.96204 15.071L3.76954 13.073C3.74335 12.6914 3.74335 12.3086 3.76954 11.927L1.96204 9.929C1.85521 9.81139 1.78849 9.66288 1.77151 9.5049C1.75453 9.34693 1.78815 9.18763 1.86754 9.05L3.94654 5.45C4.02584 5.31256 4.14668 5.20381 4.29169 5.13939C4.4367 5.07497 4.5984 5.05821 4.75354 5.0915L7.38604 5.66C7.70404 5.4455 8.03704 5.252 8.38354 5.0825L9.20854 2.5205C9.25697 2.36982 9.35183 2.23832 9.47954 2.14482C9.60725 2.05133 9.76127 2.00064 9.91954 2H14.0775H14.079ZM13.53 3.5H10.47L9.61804 6.1505L9.04354 6.431C8.76111 6.5692 8.48848 6.72657 8.22754 6.902L7.69654 7.262L4.97254 6.674L3.44254 9.326L5.31004 11.393L5.26504 12.029C5.24348 12.3426 5.24348 12.6574 5.26504 12.971L5.31004 13.607L3.43954 15.674L4.97104 18.326L7.69504 17.7395L8.22604 18.098C8.48698 18.2734 8.75961 18.4308 9.04204 18.569L9.61654 18.8495L10.47 21.5H13.533L14.388 18.848L14.961 18.569C15.2432 18.4311 15.5153 18.2738 15.7755 18.098L16.305 17.7395L19.0305 18.326L20.5605 15.674L18.6915 13.607L18.7365 12.971C18.7582 12.6569 18.7582 12.3416 18.7365 12.0275L18.6915 11.3915L20.562 9.326L19.0305 6.674L16.305 7.259L15.7755 6.902C15.5153 6.72625 15.2432 6.56886 14.961 6.431L14.388 6.152L13.5315 3.5H13.53ZM12 8C13.1935 8 14.3381 8.47411 15.182 9.31802C16.0259 10.1619 16.5 11.3065 16.5 12.5C16.5 13.6935 16.0259 14.8381 15.182 15.682C14.3381 16.5259 13.1935 17 12 17C10.8066 17 9.66197 16.5259 8.81806 15.682C7.97415 14.8381 7.50004 13.6935 7.50004 12.5C7.50004 11.3065 7.97415 10.1619 8.81806 9.31802C9.66197 8.47411 10.8066 8 12 8ZM12 9.5C11.2044 9.5 10.4413 9.81607 9.87872 10.3787C9.31611 10.9413 9.00004 11.7044 9.00004 12.5C9.00004 13.2956 9.31611 14.0587 9.87872 14.6213C10.4413 15.1839 11.2044 15.5 12 15.5C12.7957 15.5 13.5588 15.1839 14.1214 14.6213C14.684 14.0587 15 13.2956 15 12.5C15 11.7044 14.684 10.9413 14.1214 10.3787C13.5588 9.81607 12.7957 9.5 12 9.5Z" fill="#989898"/>
</svg>
