<svg width="24" height="24" viewBox="0 0 24 24" fill="none" xmlns="http://www.w3.org/2000/svg">
<path d="M7.95 4C5.21616 4 3 6.18832 3 8.88862C3 11.7187 4.63215 14.3887 7.33125 16.8331C8.25249 17.6668 9.24438 18.3983 10.2281 19.0552C10.5729 19.2845 10.8953 19.4925 11.1844 19.6658C11.3606 19.7716 11.4768 19.848 11.55 19.888C11.8218 20.0373 12.1782 20.0373 12.45 19.888C12.5232 19.848 12.6394 19.7716 12.8156 19.6658C13.1047 19.4925 13.4271 19.2845 13.7719 19.0552C14.7556 18.3983 15.7475 17.6668 16.6687 16.8331C19.3678 14.3887 21 11.7187 21 8.88862C21 6.18832 18.7838 4 16.05 4C14.4973 4 12.9814 4.83552 12.0281 6.05501C11.0986 4.81419 9.58791 4 7.95 4Z" fill="white"/>
</svg>
