<svg width="24" height="24" viewBox="0 0 24 24" fill="none" xmlns="http://www.w3.org/2000/svg">
<path fill-rule="evenodd" clip-rule="evenodd" d="M7.29303 14.0182C7.48056 14.2057 7.73487 14.311 8.00003 14.311C8.26519 14.311 8.5195 14.2057 8.70703 14.0182L12 10.7252L15.293 14.0182C15.3853 14.1137 15.4956 14.1899 15.6176 14.2423C15.7396 14.2947 15.8709 14.3223 16.0036 14.3234C16.1364 14.3246 16.2681 14.2993 16.391 14.249C16.5139 14.1987 16.6255 14.1245 16.7194 14.0306C16.8133 13.9367 16.8876 13.825 16.9379 13.7022C16.9881 13.5793 17.0134 13.4476 17.0123 13.3148C17.0111 13.182 16.9835 13.0508 16.9311 12.9288C16.8787 12.8068 16.8025 12.6964 16.707 12.6042L12.707 8.6042C12.5195 8.41673 12.2652 8.31141 12 8.31141C11.7349 8.31141 11.4806 8.41673 11.293 8.6042L7.29303 12.6042C7.10556 12.7917 7.00024 13.046 7.00024 13.3112C7.00024 13.5764 7.10556 13.8307 7.29303 14.0182Z" fill="#989898"/>
</svg>
