<svg width="25" height="25" viewBox="0 0 25 25" fill="none" xmlns="http://www.w3.org/2000/svg">
<path d="M18.5 4.97607C20.1569 4.97607 21.5 6.31922 21.5 7.97607V12.6587C22.1317 13.6089 22.5 14.7495 22.5 15.9761C22.5 19.2898 19.8137 21.9761 16.5 21.9761C13.8877 21.9761 11.6666 20.3062 10.8428 17.9761H7.83301L4.09961 20.7759C3.79661 21.003 3.39146 21.04 3.05273 20.8706C2.71395 20.7012 2.5 20.3548 2.5 19.9761V7.97607C2.5 6.31922 3.84315 4.97607 5.5 4.97607H18.5ZM16.5 11.9761C14.2909 11.9761 12.5 13.7669 12.5 15.9761C12.5 18.1852 14.2909 19.9761 16.5 19.9761C18.7091 19.9761 20.5 18.1852 20.5 15.9761C20.5 13.7669 18.7091 11.9761 16.5 11.9761ZM5.5 6.97607C4.94772 6.97607 4.5 7.42379 4.5 7.97607V17.9761L6.90039 16.1763L7.03613 16.0903C7.17858 16.0157 7.33762 15.9761 7.5 15.9761H10.5C10.5 12.6624 13.1863 9.97607 16.5 9.97607C17.593 9.97607 18.6174 10.2691 19.5 10.7798V7.97607C19.5 7.42379 19.0523 6.97607 18.5 6.97607H5.5ZM17.5 14.9761C18.0523 14.9761 18.5 15.4238 18.5 15.9761C18.5 16.5284 18.0523 16.9761 17.5 16.9761H15.5C14.9477 16.9761 14.5 16.5284 14.5 15.9761C14.5 15.4238 14.9477 14.9761 15.5 14.9761H17.5Z" fill="white"/>
</svg>
