<svg width="25" height="25" viewBox="0 0 25 25" fill="none" xmlns="http://www.w3.org/2000/svg">
<g clip-path="url(#clip0_3446_5184)">
<path d="M12.7354 4.23193C13.9094 4.29013 15.0232 4.78251 15.8584 5.61768C16.7492 6.50847 17.25 7.7163 17.25 8.97607L17.2441 9.21143C17.1859 10.3855 16.6936 11.4993 15.8584 12.3345C15.7005 12.4924 15.5319 12.6372 15.3555 12.77C15.5126 12.8323 15.668 12.9004 15.8213 12.9731C16.1954 13.1507 16.3552 13.598 16.1777 13.9722C16.0113 14.3225 15.6078 14.4848 15.25 14.3579L15.1787 14.3286L14.8164 14.1704C14.0808 13.8768 13.296 13.7256 12.5039 13.7251L12.5 13.7261C12.4879 13.7261 12.4759 13.7252 12.4639 13.7251C12.35 13.7258 12.2361 13.7299 12.1221 13.7368C11.0695 13.8006 10.0493 14.1291 9.1582 14.6929C8.26737 15.2565 7.53388 16.037 7.02539 16.9604C6.51699 17.884 6.24984 18.9218 6.25 19.9761V20.9761C6.24976 21.3901 5.91406 21.7261 5.5 21.7261C5.08594 21.7261 4.75024 21.3901 4.75 20.9761V19.9761C4.74984 18.669 5.08066 17.3829 5.71094 16.2378C6.34151 15.0925 7.25156 14.1243 8.35645 13.4253C8.76599 13.1662 9.19721 12.9461 9.64453 12.769C9.4683 12.6363 9.29941 12.4923 9.1416 12.3345C8.30643 11.4993 7.81406 10.3855 7.75586 9.21143L7.75 8.97607C7.75 7.7163 8.2508 6.50847 9.1416 5.61768C10.0324 4.72688 11.2402 4.22607 12.5 4.22607L12.7354 4.23193ZM12.5 5.72607C11.638 5.72607 10.8116 6.06873 10.2021 6.67822C9.59266 7.28772 9.25 8.11412 9.25 8.97607L9.25391 9.13721C9.29375 9.9405 9.63074 10.7025 10.2021 11.2739C10.8068 11.8786 11.6249 12.2197 12.4795 12.2251C12.4967 12.2251 12.514 12.225 12.5312 12.2251L12.6611 12.2222C13.4644 12.1823 14.2264 11.8453 14.7979 11.2739C15.4073 10.6644 15.75 9.83803 15.75 8.97607L15.7461 8.81494C15.7063 8.01165 15.3693 7.24963 14.7979 6.67822C14.2264 6.10682 13.4644 5.76982 12.6611 5.72998L12.5 5.72607Z" fill="white"/>
<path d="M15.586 15.5468C16.012 15.1209 16.7026 15.1209 17.1286 15.5468L18.672 17.0902L20.2146 15.5475C20.6407 15.1214 21.3312 15.1214 21.7573 15.5475C22.1832 15.9736 22.1833 16.6642 21.7573 17.0902L20.2146 18.6328L21.7573 20.1755C22.1833 20.6015 22.1832 21.292 21.7573 21.7181C21.3312 22.1442 20.6407 22.1442 20.2146 21.7181L18.672 20.1755L17.1286 21.7188C16.7026 22.1447 16.012 22.1446 15.586 21.7188C15.16 21.2928 15.1601 20.6022 15.586 20.1762L17.1293 18.6328L15.586 17.0895C15.16 16.6634 15.16 15.9729 15.586 15.5468Z" fill="white"/>
</g>
<defs>
<clipPath id="clip0_3446_5184">
<rect width="24" height="24" fill="white" transform="translate(0.5 0.976074)"/>
</clipPath>
</defs>
</svg>
