<svg width="25" height="25" viewBox="0 0 25 25" fill="none" xmlns="http://www.w3.org/2000/svg">
<path d="M12.5001 3.45215C12.8513 3.45216 13.1768 3.63639 13.3575 3.9375L22.3575 18.9375C22.5429 19.2464 22.5477 19.6318 22.3702 19.9453C22.1927 20.2586 21.8602 20.4521 21.5001 20.4521H3.50012C3.14001 20.4521 2.80757 20.2586 2.63 19.9453C2.4525 19.6318 2.45734 19.2464 2.6427 18.9375L11.6427 3.9375L11.7169 3.83008C11.9051 3.59311 12.1928 3.45215 12.5001 3.45215ZM5.26672 18.4521H19.7335L12.5001 6.39551L5.26672 18.4521ZM12.5001 15.4521C13.0524 15.4522 13.5001 15.8999 13.5001 16.4521C13.5001 17.0044 13.0524 17.4521 12.5001 17.4521C11.9478 17.4521 11.5001 17.0044 11.5001 16.4521C11.5001 15.8999 11.9478 15.4521 12.5001 15.4521ZM12.5001 9.45215C13.0524 9.4522 13.5001 9.89989 13.5001 10.4521V13.4521C13.5001 14.0044 13.0524 14.4521 12.5001 14.4521C11.9478 14.4521 11.5001 14.0044 11.5001 13.4521V10.4521C11.5001 9.89986 11.9478 9.45215 12.5001 9.45215Z" fill="#989898"/>
</svg>
