<svg width="25" height="25" viewBox="0 0 25 25" fill="none" xmlns="http://www.w3.org/2000/svg">
<path d="M19.8333 10.2256C19.8333 9.62728 19.3483 9.14225 18.75 9.14225H16.5495L16.3453 8.32129L15.9433 6.71216C15.8377 6.29063 15.4923 5.9795 15.0747 5.90812L14.8917 5.89225H9.60832C9.11119 5.89227 8.67741 6.23036 8.55672 6.71216L8.1547 8.32129L7.95052 9.14225H5.75C5.15169 9.14225 4.66667 9.62728 4.66667 10.2256V17.8089L4.67196 17.92C4.72757 18.4661 5.18918 18.8923 5.75 18.8923H18.75C19.3108 18.8923 19.7724 18.4661 19.828 17.92L19.8333 17.8089V10.2256ZM14.4167 13.4756C14.4167 12.279 13.4466 11.3089 12.25 11.3089C11.0534 11.3089 10.0833 12.279 10.0833 13.4756C10.0833 14.6722 11.0534 15.6423 12.25 15.6423C13.4466 15.6423 14.4167 14.6722 14.4167 13.4756ZM16.5833 13.4756C16.5833 15.8688 14.6432 17.8089 12.25 17.8089C9.85677 17.8089 7.91667 15.8688 7.91667 13.4756C7.91667 11.0824 9.85677 9.14225 12.25 9.14225C14.6432 9.14225 16.5833 11.0824 16.5833 13.4756ZM22 17.8089L21.9958 17.9761C21.9088 19.6933 20.4889 21.0589 18.75 21.0589H5.75C4.01114 21.0589 2.59123 19.6933 2.50423 17.9761L2.5 17.8089V10.2256C2.5 8.43066 3.95507 6.97559 5.75 6.97559H6.25887L6.45565 6.18742C6.81752 4.74064 8.11734 3.72561 9.60832 3.72559H14.8917L15.1689 3.73722C16.5416 3.85401 17.7051 4.83107 18.0444 6.18742L18.2411 6.97559H18.75C20.5449 6.97559 22 8.43066 22 10.2256V17.8089Z" fill="#989898"/>
</svg>
