<svg width="25" height="25" viewBox="0 0 25 25" fill="none" xmlns="http://www.w3.org/2000/svg">
<path d="M18.75 4.72559C20.5449 4.72559 22 6.18066 22 7.97559V16.6416C22 18.4365 20.5449 19.8916 18.75 19.8916H5.75C4.01129 19.8916 2.59114 18.5266 2.50391 16.8096L2.5 16.6416V7.97559C2.5 6.18066 3.95507 4.72559 5.75 4.72559H18.75ZM5.75 6.8916C5.15169 6.8916 4.66699 7.37728 4.66699 7.97559V16.6416L4.67188 16.7529C4.72748 17.2991 5.18918 17.7256 5.75 17.7256H7.33691L8.21777 16.4033C6.77681 15.8662 5.75014 14.4787 5.75 12.8506C5.75 10.7565 7.44791 9.05859 9.54199 9.05859C10.4581 9.05865 11.3894 9.28963 12.1182 9.85059C12.2229 9.93118 12.3204 10.0188 12.4131 10.1104L13.5156 8.45801L13.5947 8.35254C13.7936 8.12094 14.0833 7.98253 14.3926 7.97559C14.7459 7.96775 15.0819 8.13204 15.291 8.41699L19.833 14.6104V7.97559C19.833 7.37728 19.3483 6.8916 18.75 6.8916H5.75ZM16.4404 17.7256H18.75C18.956 17.7256 19.1476 17.6662 19.3115 17.5664L17.8633 15.5908L16.4404 17.7256ZM13.2891 12.7012C13.2263 12.9169 13.0992 13.1048 12.9287 13.2422L9.94043 17.7256H13.8369L16.499 13.7314L14.458 10.9482L13.2891 12.7012ZM9.54199 11.2256C8.64453 11.2256 7.91699 11.9531 7.91699 12.8506C7.91717 13.7356 8.62454 14.4531 9.50488 14.4727L11.1211 12.0488C11.0609 11.8328 10.9449 11.6825 10.7969 11.5684C10.5455 11.3749 10.1214 11.2256 9.54199 11.2256Z" fill="#989898"/>
</svg>
