<svg width="25" height="25" viewBox="0 0 25 25" fill="none" xmlns="http://www.w3.org/2000/svg">
<path d="M18.5 4.45215C20.1569 4.45215 21.5 5.79529 21.5 7.45215V12.1348C22.1317 13.085 22.5 14.2255 22.5 15.4521C22.5 18.7659 19.8137 21.4521 16.5 21.4521C13.8877 21.4521 11.6666 19.7823 10.8428 17.4521H7.83301L4.09961 20.252C3.79661 20.4791 3.39146 20.516 3.05273 20.3467C2.71395 20.1773 2.5 19.8309 2.5 19.4521V7.45215C2.5 5.79529 3.84315 4.45215 5.5 4.45215H18.5ZM16.5 11.4521C14.2909 11.4521 12.5 13.243 12.5 15.4521C12.5 17.6613 14.2909 19.4521 16.5 19.4521C18.7091 19.4521 20.5 17.6613 20.5 15.4521C20.5 13.243 18.7091 11.4521 16.5 11.4521ZM5.5 6.45215C4.94772 6.45215 4.5 6.89986 4.5 7.45215V17.4521L6.90039 15.6523L7.03613 15.5664C7.17858 15.4918 7.33762 15.4521 7.5 15.4521H10.5C10.5 12.1384 13.1863 9.45215 16.5 9.45215C17.593 9.45215 18.6174 9.74519 19.5 10.2559V7.45215C19.5 6.89986 19.0523 6.45215 18.5 6.45215H5.5ZM17.5 14.4521C18.0523 14.4521 18.5 14.8999 18.5 15.4521C18.5 16.0044 18.0523 16.4521 17.5 16.4521H15.5C14.9477 16.4521 14.5 16.0044 14.5 15.4521C14.5 14.8999 14.9477 14.4521 15.5 14.4521H17.5Z" fill="#989898"/>
</svg>
