<svg width="24" height="25" viewBox="0 0 24 25" fill="none" xmlns="http://www.w3.org/2000/svg">
<path d="M2 6.51098C2 6.31557 2.07804 6.12816 2.21696 5.98998C2.35587 5.8518 2.54428 5.77417 2.74074 5.77417H19.037C19.2335 5.77417 19.4219 5.8518 19.5608 5.98998C19.6997 6.12816 19.7778 6.31557 19.7778 6.51098C19.7778 6.7064 19.6997 6.89381 19.5608 7.03199C19.4219 7.17017 19.2335 7.2478 19.037 7.2478H2.74074C2.54428 7.2478 2.35587 7.17017 2.21696 7.03199C2.07804 6.89381 2 6.7064 2 6.51098ZM2.74074 13.1423H8.66667C8.86312 13.1423 9.05153 13.0647 9.19045 12.9265C9.32936 12.7883 9.40741 12.6009 9.40741 12.4055C9.40741 12.2101 9.32936 12.0227 9.19045 11.8845C9.05153 11.7463 8.86312 11.6687 8.66667 11.6687H2.74074C2.54428 11.6687 2.35587 11.7463 2.21696 11.8845C2.07804 12.0227 2 12.2101 2 12.4055C2 12.6009 2.07804 12.7883 2.21696 12.9265C2.35587 13.0647 2.54428 13.1423 2.74074 13.1423ZM10.1481 17.5632H2.74074C2.54428 17.5632 2.35587 17.6408 2.21696 17.779C2.07804 17.9172 2 18.1046 2 18.3C2 18.4954 2.07804 18.6828 2.21696 18.821C2.35587 18.9592 2.54428 19.0368 2.74074 19.0368H10.1481C10.3446 19.0368 10.533 18.9592 10.6719 18.821C10.8108 18.6828 10.8889 18.4954 10.8889 18.3C10.8889 18.1046 10.8108 17.9172 10.6719 17.779C10.533 17.6408 10.3446 17.5632 10.1481 17.5632ZM22 13.8791C22 17.2427 17.3444 19.5968 17.1463 19.6963C17.0434 19.7475 16.9299 19.7742 16.8148 19.7742C16.6997 19.7742 16.5862 19.7475 16.4833 19.6963C16.2852 19.5968 11.6296 17.2427 11.6296 13.8791C11.6301 13.2807 11.8137 12.6966 12.1561 12.2044C12.4984 11.7123 12.9833 11.3355 13.5462 11.1242C14.109 10.9128 14.7232 10.8769 15.3071 11.0212C15.891 11.1656 16.4169 11.4833 16.8148 11.9321C17.2128 11.4833 17.7386 11.1656 18.3225 11.0212C18.9064 10.8769 19.5206 10.9128 20.0835 11.1242C20.6463 11.3355 21.1312 11.7123 21.4735 12.2044C21.8159 12.6966 21.9995 13.2807 22 13.8791ZM20.5185 13.8791C20.5185 13.4883 20.3624 13.1135 20.0846 12.8371C19.8068 12.5608 19.4299 12.4055 19.037 12.4055C18.6441 12.4055 18.2673 12.5608 17.9895 12.8371C17.7116 13.1135 17.5556 13.4883 17.5556 13.8791C17.5556 14.0745 17.4775 14.262 17.3386 14.4001C17.1997 14.5383 17.0113 14.6159 16.8148 14.6159C16.6184 14.6159 16.4299 14.5383 16.291 14.4001C16.1521 14.262 16.0741 14.0745 16.0741 13.8791C16.0741 13.4883 15.918 13.1135 15.6402 12.8371C15.3623 12.5608 14.9855 12.4055 14.5926 12.4055C14.1997 12.4055 13.8229 12.5608 13.545 12.8371C13.2672 13.1135 13.1111 13.4883 13.1111 13.8791C13.1111 15.7377 15.538 17.484 16.8148 18.2015C18.0917 17.4849 20.5185 15.7387 20.5185 13.8791Z" fill="#989898"/>
</svg>
