<svg width="25" height="25" viewBox="0 0 25 25" fill="none" xmlns="http://www.w3.org/2000/svg">
<path d="M17.5 2.97607C19.1569 2.97607 20.5 4.31922 20.5 5.97607V19.9761C20.5 21.6329 19.1569 22.9761 17.5 22.9761H7.5C5.84315 22.9761 4.5 21.6329 4.5 19.9761V5.97607C4.5 4.31922 5.84315 2.97607 7.5 2.97607H17.5ZM6.5 19.9761C6.5 20.5284 6.94772 20.9761 7.5 20.9761H17.5C18.0523 20.9761 18.5 20.5284 18.5 19.9761V12.9761H6.5V19.9761ZM10.5 13.9761C11.0523 13.9761 11.5 14.4238 11.5 14.9761V15.9761H12.5C13.0523 15.9761 13.5 16.4238 13.5 16.9761C13.5 17.5284 13.0523 17.9761 12.5 17.9761H11.5V18.9761C11.5 19.5284 11.0523 19.9761 10.5 19.9761C9.94772 19.9761 9.5 19.5284 9.5 18.9761V17.9761H8.5C7.94772 17.9761 7.5 17.5284 7.5 16.9761C7.5 16.4238 7.94772 15.9761 8.5 15.9761H9.5V14.9761C9.5 14.4238 9.94772 13.9761 10.5 13.9761ZM15.5 17.9761C16.0523 17.9761 16.5 18.4238 16.5 18.9761C16.5 19.5284 16.0523 19.9761 15.5 19.9761C14.9477 19.9761 14.5 19.5284 14.5 18.9761C14.5 18.4238 14.9477 17.9761 15.5 17.9761ZM16.5 14.9761C17.0523 14.9761 17.5 15.4238 17.5 15.9761C17.5 16.5284 17.0523 16.9761 16.5 16.9761C15.9477 16.9761 15.5 16.5284 15.5 15.9761C15.5 15.4238 15.9477 14.9761 16.5 14.9761ZM7.5 4.97607C6.94772 4.97607 6.5 5.42379 6.5 5.97607V10.9761H7.5V6.97607C7.5 6.42379 7.94772 5.97607 8.5 5.97607H16.5C17.0523 5.97607 17.5 6.42379 17.5 6.97607V10.9761H18.5V5.97607C18.5 5.42379 18.0523 4.97607 17.5 4.97607H7.5ZM9.5 10.9761H15.5V7.97607H9.5V10.9761Z" fill="white"/>
</svg>
