<svg width="25" height="25" viewBox="0 0 25 25" fill="none" xmlns="http://www.w3.org/2000/svg">
<path d="M12.5 2.45166C10.5222 2.45166 8.58879 3.03815 6.9443 4.13696C5.29981 5.23578 4.01809 6.79756 3.26121 8.62483C2.50433 10.4521 2.3063 12.4628 2.69215 14.4026C3.078 16.3424 4.03041 18.1242 5.42894 19.5227C6.82746 20.9213 8.60929 21.8737 10.5491 22.2595C12.4889 22.6454 14.4996 22.4473 16.3268 21.6905C18.1541 20.9336 19.7159 19.6519 20.8147 18.0074C21.9135 16.3629 22.5 14.4295 22.5 12.4517C22.4971 9.8004 21.4425 7.25857 19.5678 5.38385C17.6931 3.50912 15.1513 2.45461 12.5 2.45166ZM12.5 20.4517C10.9178 20.4517 9.37104 19.9825 8.05544 19.1034C6.73985 18.2244 5.71447 16.9749 5.10897 15.5131C4.50347 14.0513 4.34504 12.4428 4.65372 10.8909C4.9624 9.33909 5.72433 7.91363 6.84315 6.79481C7.96197 5.67599 9.38743 4.91406 10.9393 4.60538C12.4911 4.2967 14.0997 4.45512 15.5615 5.06062C17.0233 5.66613 18.2727 6.6915 19.1518 8.0071C20.0308 9.32269 20.5 10.8694 20.5 12.4517C20.4976 14.5726 19.6539 16.6061 18.1542 18.1058C16.6544 19.6056 14.621 20.4492 12.5 20.4517ZM12.5 11.9517C12.2348 11.9517 11.9804 12.057 11.7929 12.2446C11.6054 12.4321 11.5 12.6864 11.5 12.9517V15.9517C11.5 16.2169 11.6054 16.4712 11.7929 16.6588C11.9804 16.8463 12.2348 16.9517 12.5 16.9517C12.7652 16.9517 13.0196 16.8463 13.2071 16.6588C13.3946 16.4712 13.5 16.2169 13.5 15.9517V12.9517C13.5 12.6864 13.3946 12.4321 13.2071 12.2446C13.0196 12.057 12.7652 11.9517 12.5 11.9517ZM12.5 7.95166C12.2528 7.95166 12.0111 8.02497 11.8055 8.16232C11.6 8.29967 11.4398 8.4949 11.3452 8.72331C11.2505 8.95171 11.2258 9.20305 11.274 9.44552C11.3223 9.688 11.4413 9.91073 11.6161 10.0855C11.7909 10.2604 12.0137 10.3794 12.2561 10.4276C12.4986 10.4759 12.75 10.4511 12.9784 10.3565C13.2068 10.2619 13.402 10.1017 13.5393 9.89612C13.6767 9.69056 13.75 9.44889 13.75 9.20166C13.75 8.87014 13.6183 8.5522 13.3839 8.31778C13.1495 8.08336 12.8315 7.95166 12.5 7.95166Z" fill="white"/>
</svg>
