<svg width="24" height="25" viewBox="0 0 24 25" fill="none" xmlns="http://www.w3.org/2000/svg">
<path d="M13.9961 8.36304C13.9563 7.55975 13.6193 6.79773 13.0479 6.22632C12.4764 5.65491 11.7144 5.31792 10.9111 5.27808L10.75 5.27417C9.88805 5.27417 9.06164 5.61683 8.45215 6.22632C7.84266 6.83581 7.5 7.66222 7.5 8.52417L7.50391 8.6853C7.54375 9.48859 7.88074 10.2506 8.45215 10.822C9.06164 11.4315 9.88805 11.7742 10.75 11.7742L10.9111 11.7703C11.7144 11.7304 12.4764 11.3934 13.0479 10.822C13.6573 10.2125 14 9.38612 14 8.52417L13.9961 8.36304ZM15.4941 8.75952C15.4359 9.93361 14.9436 11.0474 14.1084 11.8826C13.2732 12.7177 12.1594 13.2101 10.9854 13.2683L10.75 13.2742C9.49022 13.2742 8.2824 12.7734 7.3916 11.8826C6.55643 11.0474 6.06406 9.93361 6.00586 8.75952L6 8.52417C6 7.26439 6.5008 6.05657 7.3916 5.16577C8.2824 4.27497 9.49022 3.77417 10.75 3.77417L10.9854 3.78003C12.1594 3.83823 13.2732 4.3306 14.1084 5.16577C14.9992 6.05657 15.5 7.26439 15.5 8.52417L15.4941 8.75952Z" fill="#989898"/>
<path d="M3 20.5237V19.5237C2.99984 18.2165 3.33054 16.9306 3.96094 15.7854C4.59155 14.64 5.50147 13.672 6.60645 12.9729C7.71147 12.2739 8.97608 11.8665 10.2812 11.7874C11.5863 11.7083 12.89 11.9605 14.0713 12.5208C14.4455 12.6983 14.6053 13.1456 14.4277 13.5198C14.2614 13.8704 13.858 14.0326 13.5 13.9056L13.4287 13.8763L13.0664 13.7181C12.2127 13.3774 11.2928 13.2287 10.3721 13.2845C9.31952 13.3483 8.29935 13.6768 7.4082 14.2405C6.51728 14.8042 5.78392 15.5846 5.27539 16.5081C4.76687 17.4317 4.49984 18.4693 4.5 19.5237V20.5237C4.5 20.9379 4.16421 21.2737 3.75 21.2737C3.33579 21.2737 3 20.9379 3 20.5237Z" fill="#989898"/>
<path d="M15.8306 14.9077C15.8306 14.3051 16.3191 13.8167 16.9216 13.8167C17.5242 13.8167 18.0126 14.3051 18.0126 14.9077V21.4537C18.0126 22.0562 17.5242 22.5447 16.9216 22.5447C16.3191 22.5447 15.8306 22.0562 15.8306 21.4537V14.9077Z" fill="#989898"/>
<path d="M20.1946 17.0898C20.7972 17.0898 21.2856 17.5783 21.2856 18.1808C21.2856 18.7834 20.7972 19.2718 20.1946 19.2718H13.6486C13.0461 19.2718 12.5576 18.7834 12.5576 18.1808C12.5576 17.5783 13.0461 17.0898 13.6486 17.0898H20.1946Z" fill="#989898"/>
</svg>
