<svg width="24" height="24" viewBox="0 0 24 24" fill="none" xmlns="http://www.w3.org/2000/svg">
<path d="M7.95 4C5.21616 4 3 6.18832 3 8.88862C3 11.7187 4.63215 14.3887 7.33125 16.8331C8.25249 17.6668 9.24438 18.3983 10.2281 19.0552C10.5729 19.2845 10.8953 19.4925 11.1844 19.6658C11.3606 19.7716 11.4768 19.848 11.55 19.888C11.8218 20.0373 12.1782 20.0373 12.45 19.888C12.5232 19.848 12.6394 19.7716 12.8156 19.6658C13.1047 19.4925 13.4271 19.2845 13.7719 19.0552C14.7556 18.3983 15.7475 17.6668 16.6687 16.8331C19.3678 14.3887 21 11.7187 21 8.88862C21 6.18832 18.7838 4 16.05 4C14.4973 4 12.9814 4.83552 12.0281 6.05501C11.0986 4.81419 9.58791 4 7.95 4ZM7.95 5.77768C9.04251 5.77768 10.0627 6.32521 10.65 7.16606C10.7071 7.24783 11.157 7.90112 11.2406 8.02734C11.5888 8.55442 12.3657 8.57042 12.7312 8.0549C12.8202 7.92957 13.2884 7.27892 13.35 7.19448C13.963 6.34831 15.0359 5.77768 16.05 5.77768C17.7897 5.77768 19.2 7.17049 19.2 8.88862C19.2 11.1134 17.7946 13.3595 15.4312 15.4998C14.5806 16.2695 13.6741 16.9717 12.7594 17.5824C12.4828 17.7672 12.2362 17.9112 12 18.0543C11.7638 17.9112 11.5172 17.7672 11.2406 17.5824C10.3259 16.9717 9.41943 16.2695 8.56875 15.4998C6.20535 13.3595 4.8 11.1134 4.8 8.88862C4.8 7.17049 6.2103 5.77768 7.95 5.77768Z" fill="#989898"/>
</svg>
