<svg width="24" height="24" viewBox="0 0 24 24" fill="none" xmlns="http://www.w3.org/2000/svg">
<path d="M21.2912 17.0801C21.7848 16.0871 22.0269 14.9941 21.9976 13.892C21.9683 12.79 21.6683 11.7106 21.1226 10.7436C20.5769 9.77655 19.8012 8.9498 18.86 8.33199C17.9188 7.71418 16.8392 7.32316 15.7109 7.19139C15.3355 6.34462 14.7896 5.57903 14.1054 4.93945C13.4212 4.29986 12.6123 3.79914 11.726 3.46661C10.8398 3.13407 9.89414 2.97641 8.94433 3.00285C7.99453 3.02929 7.0597 3.23931 6.19461 3.62059C5.32951 4.00188 4.55154 4.54678 3.90623 5.22337C3.26093 5.89997 2.76127 6.69467 2.43652 7.56093C2.11176 8.42719 1.96844 9.3476 2.01495 10.2683C2.06146 11.1889 2.29685 12.0913 2.70736 12.9226L2.05825 15.0629C1.98568 15.3018 1.98083 15.5553 2.04421 15.7967C2.10759 16.038 2.23686 16.2584 2.41842 16.4345C2.59998 16.6106 2.82712 16.736 3.07594 16.7975C3.32476 16.859 3.58606 16.8543 3.83235 16.7839L6.0386 16.1542C6.74702 16.4844 7.50653 16.6995 8.28681 16.7908C8.66589 17.6525 9.22116 18.4306 9.91904 19.0782C10.6169 19.7257 11.4429 20.2293 12.3471 20.5584C13.2513 20.8875 14.2149 21.0353 15.1796 20.9929C16.1443 20.9505 17.0902 20.7188 17.96 20.3117L20.1662 20.9414C20.4124 21.0117 20.6736 21.0164 20.9223 20.9549C21.171 20.8935 21.3981 20.7682 21.5796 20.5922C21.7612 20.4161 21.8904 20.1959 21.9539 19.9547C22.0174 19.7135 22.0127 19.4601 21.9403 19.2212L21.2912 17.0801ZM6.10645 14.719C6.0382 14.7192 5.97029 14.7285 5.90467 14.7467L3.42789 15.4552L4.15735 13.0508C4.20923 12.8771 4.18905 12.6906 4.1011 12.5312C3.45495 11.3589 3.26457 10.0004 3.56465 8.70338C3.86473 7.40633 4.63529 6.25708 5.73587 5.46513C6.83645 4.67317 8.19376 4.29126 9.56036 4.38899C10.927 4.48673 12.2119 5.05762 13.1808 5.99758C14.1498 6.93755 14.7383 8.184 14.839 9.50972C14.9398 10.8354 14.5461 12.1521 13.7297 13.2198C12.9133 14.2874 11.7286 15.0349 10.3916 15.326C9.05451 15.6171 7.65415 15.4325 6.44574 14.8056C6.34183 14.7499 6.22521 14.7201 6.10645 14.719ZM19.8377 17.2074L20.5707 19.6127L18.0921 18.9051C17.9131 18.8548 17.7208 18.8743 17.5564 18.9596C16.2411 19.641 14.7035 19.797 13.2713 19.3944C11.8391 18.9919 10.6256 18.0626 9.88948 16.8047C10.8675 16.7057 11.8139 16.4116 12.6692 15.9411C13.5246 15.4705 14.2704 14.8335 14.86 14.0701C15.4496 13.3067 15.8703 12.4333 16.0955 11.5048C16.3207 10.5763 16.3457 9.61258 16.1689 8.67423C17.0211 8.86908 17.8156 9.25126 18.4913 9.79129C19.1671 10.3313 19.7058 11.0147 20.066 11.7888C20.4263 12.5629 20.5983 13.4069 20.569 14.2557C20.5396 15.1045 20.3095 15.9354 19.8966 16.6843C19.8077 16.8447 19.7875 17.0327 19.8403 17.2074H19.8377Z" fill="white"/>
</svg>
