<svg width="24" height="24" viewBox="0 0 24 24" fill="none" xmlns="http://www.w3.org/2000/svg">
<path d="M8.00006 5.07006C9.68096 4.09996 11.6572 3.77397 13.5606 4.15283C15.464 4.53169 17.1648 5.58955 18.3461 7.12935C19.5275 8.66915 20.1088 10.5859 19.9818 12.5225C19.8548 14.4591 19.0281 16.2835 17.6558 17.6558C16.2835 19.0281 14.4591 19.8548 12.5225 19.9818C10.5859 20.1088 8.66915 19.5275 7.12935 18.3461C5.58955 17.1648 4.53169 15.464 4.15283 13.5606C3.77397 11.6572 4.09996 9.68096 5.07006 8.00006" stroke="white" stroke-width="1.5" stroke-linecap="round"/>
<path d="M13.8301 14.9261C8.40205 17.8191 3.18205 18.8531 2.17005 17.2361C1.63805 16.3841 2.38105 14.9661 4.00005 13.3901M17.8491 6.19006C19.8601 5.82006 21.3391 5.98006 21.8291 6.76306C22.6271 8.03806 20.5691 10.5801 17.0001 13.0161" stroke="white" stroke-width="1.5" stroke-linecap="round" stroke-linejoin="round"/>
</svg>
