<svg width="24" height="25" viewBox="0 0 24 25" fill="none" xmlns="http://www.w3.org/2000/svg">
<path d="M12 2.77417C10.0222 2.77417 8.08879 3.36066 6.4443 4.45947C4.79981 5.55829 3.51809 7.12007 2.76121 8.94734C2.00433 10.7746 1.8063 12.7853 2.19215 14.7251C2.578 16.6649 3.53041 18.4467 4.92894 19.8452C6.32746 21.2438 8.10929 22.1962 10.0491 22.582C11.9889 22.9679 13.9996 22.7698 15.8268 22.013C17.6541 21.2561 19.2159 19.9744 20.3147 18.3299C21.4135 16.6854 22 14.752 22 12.7742C21.9971 10.1229 20.9425 7.58108 19.0678 5.70636C17.1931 3.83163 14.6513 2.77712 12 2.77417ZM12 20.7742C10.4178 20.7742 8.87104 20.305 7.55544 19.4259C6.23985 18.5469 5.21447 17.2974 4.60897 15.8356C4.00347 14.3738 3.84504 12.7653 4.15372 11.2134C4.4624 9.6616 5.22433 8.23614 6.34315 7.11732C7.46197 5.9985 8.88743 5.23657 10.4393 4.92789C11.9911 4.61921 13.5997 4.77763 15.0615 5.38313C16.5233 5.98863 17.7727 7.01401 18.6518 8.32961C19.5308 9.6452 20 11.1919 20 12.7742C19.9976 14.8952 19.1539 16.9286 17.6542 18.4283C16.1544 19.9281 14.121 20.7717 12 20.7742ZM12 12.2742C11.7348 12.2742 11.4804 12.3795 11.2929 12.5671C11.1054 12.7546 11 13.009 11 13.2742V16.2742C11 16.5394 11.1054 16.7937 11.2929 16.9813C11.4804 17.1688 11.7348 17.2742 12 17.2742C12.2652 17.2742 12.5196 17.1688 12.7071 16.9813C12.8946 16.7937 13 16.5394 13 16.2742V13.2742C13 13.009 12.8946 12.7546 12.7071 12.5671C12.5196 12.3795 12.2652 12.2742 12 12.2742ZM12 8.27417C11.7528 8.27417 11.5111 8.34748 11.3055 8.48483C11.1 8.62218 10.9398 8.81741 10.8452 9.04582C10.7505 9.27422 10.7258 9.52556 10.774 9.76803C10.8223 10.0105 10.9413 10.2332 11.1161 10.4081C11.2909 10.5829 11.5137 10.7019 11.7561 10.7502C11.9986 10.7984 12.25 10.7736 12.4784 10.679C12.7068 10.5844 12.902 10.4242 13.0393 10.2186C13.1767 10.0131 13.25 9.7714 13.25 9.52417C13.25 9.19265 13.1183 8.87471 12.8839 8.64029C12.6495 8.40587 12.3315 8.27417 12 8.27417Z" fill="#989898"/>
</svg>
