<svg width="25" height="25" viewBox="0 0 25 25" fill="none" xmlns="http://www.w3.org/2000/svg">
<path d="M16.5498 4.72559C19.2836 4.72559 21.5 6.91396 21.5 9.61426C21.5 12.4443 19.8679 15.1143 17.1689 17.5586C16.2477 18.3923 15.2552 19.1234 14.2715 19.7803C13.9267 20.0096 13.6045 20.2183 13.3154 20.3916C13.1396 20.4972 13.0234 20.5733 12.9502 20.6133C12.6784 20.7626 12.3216 20.7626 12.0498 20.6133C11.9766 20.5733 11.8604 20.4972 11.6846 20.3916C11.3955 20.2183 11.0733 20.0096 10.7285 19.7803C9.74482 19.1234 8.75229 18.3923 7.83105 17.5586C5.13205 15.1143 3.50002 12.4443 3.5 9.61426C3.5 6.91396 5.71636 4.72559 8.4502 4.72559C10.088 4.72565 11.5988 5.53955 12.5283 6.78027C13.4816 5.56101 14.9973 4.72566 16.5498 4.72559ZM16.5498 6.50293C15.5357 6.503 14.4626 7.0738 13.8496 7.91992C13.7878 8.00468 13.3207 8.65442 13.2314 8.78027C13.0531 9.03179 12.7766 9.1554 12.5 9.15625V18.7803C12.7362 18.6372 12.9832 18.4925 13.2598 18.3076C14.1743 17.697 15.0811 16.9952 15.9316 16.2256C18.295 14.0853 19.7002 11.839 19.7002 9.61426C19.7002 7.89613 18.2895 6.50293 16.5498 6.50293Z" fill="white"/>
</svg>
