<svg width="25" height="25" viewBox="0 0 25 25" fill="none" xmlns="http://www.w3.org/2000/svg">
<path fill-rule="evenodd" clip-rule="evenodd" d="M6.85159 9.47719C7.07662 9.25222 7.38179 9.12584 7.69999 9.12584C8.01818 9.12584 8.32335 9.25222 8.54839 9.47719L12.5 13.4288L16.4516 9.47719C16.5623 9.36257 16.6947 9.27115 16.8411 9.20826C16.9875 9.14537 17.145 9.11227 17.3043 9.11089C17.4636 9.1095 17.6217 9.13986 17.7691 9.2002C17.9166 9.26054 18.0506 9.34964 18.1633 9.46231C18.2759 9.57498 18.365 9.70897 18.4254 9.85644C18.4857 10.0039 18.5161 10.1619 18.5147 10.3213C18.5133 10.4806 18.4802 10.6381 18.4173 10.7845C18.3544 10.9309 18.263 11.0633 18.1484 11.174L13.3484 15.974C13.1234 16.199 12.8182 16.3253 12.5 16.3253C12.1818 16.3253 11.8766 16.199 11.6516 15.974L6.85159 11.174C6.62662 10.949 6.50024 10.6438 6.50024 10.3256C6.50024 10.0074 6.62662 9.70222 6.85159 9.47719Z" fill="white"/>
</svg>
