<svg width="24" height="24" viewBox="0 0 24 24" fill="none" xmlns="http://www.w3.org/2000/svg">
<path d="M11 3.5V2.75C11 2.55109 11.079 2.36032 11.2197 2.21967C11.3603 2.07902 11.5511 2 11.75 2C11.9489 2 12.1397 2.07902 12.2803 2.21967C12.421 2.36032 12.5 2.55109 12.5 2.75V3.5C12.5 3.69891 12.421 3.88968 12.2803 4.03033C12.1397 4.17098 11.9489 4.25 11.75 4.25C11.5511 4.25 11.3603 4.17098 11.2197 4.03033C11.079 3.88968 11 3.69891 11 3.5ZM18.5 6.5C18.5985 6.50008 18.6961 6.48074 18.7871 6.4431C18.8782 6.40546 18.9609 6.35025 19.0306 6.28062L19.7806 5.53062C19.9214 5.38989 20.0004 5.19902 20.0004 5C20.0004 4.80098 19.9214 4.61011 19.7806 4.46938C19.6399 4.32864 19.449 4.24958 19.25 4.24958C19.051 4.24958 18.8601 4.32864 18.7194 4.46938L17.9694 5.21938C17.8644 5.32427 17.7928 5.45796 17.7639 5.60352C17.7349 5.74908 17.7497 5.89998 17.8065 6.03709C17.8633 6.17421 17.9596 6.29139 18.083 6.37379C18.2065 6.45619 18.3516 6.50012 18.5 6.5ZM4.46938 6.28062C4.53906 6.35031 4.62178 6.40558 4.71283 6.4433C4.80387 6.48101 4.90145 6.50042 5 6.50042C5.09855 6.50042 5.19613 6.48101 5.28717 6.4433C5.37822 6.40558 5.46094 6.35031 5.53062 6.28062C5.60031 6.21094 5.65558 6.12822 5.6933 6.03717C5.73101 5.94613 5.75042 5.84855 5.75042 5.75C5.75042 5.65145 5.73101 5.55387 5.6933 5.46283C5.65558 5.37178 5.60031 5.28906 5.53062 5.21938L4.78062 4.46938C4.63989 4.32864 4.44902 4.24958 4.25 4.24958C4.05098 4.24958 3.86011 4.32864 3.71938 4.46938C3.57864 4.61011 3.49958 4.80098 3.49958 5C3.49958 5.19902 3.57864 5.38989 3.71938 5.53062L4.46938 6.28062ZM12.6256 8.76031C12.5281 8.74306 12.428 8.74531 12.3314 8.76693C12.2347 8.78855 12.1432 8.82911 12.0623 8.88627C11.9814 8.94343 11.9126 9.01606 11.8599 9.09997C11.8072 9.18387 11.7716 9.27738 11.7553 9.3751C11.739 9.47282 11.7421 9.57281 11.7646 9.66929C11.7872 9.76577 11.8286 9.85684 11.8865 9.93723C11.9444 10.0176 12.0176 10.0857 12.102 10.1377C12.1864 10.1896 12.2803 10.2242 12.3781 10.2397C14.1566 10.5387 15.5 12.155 15.5 14C15.5 14.1989 15.579 14.3897 15.7197 14.5303C15.8603 14.671 16.0511 14.75 16.25 14.75C16.4489 14.75 16.6397 14.671 16.7803 14.5303C16.921 14.3897 17 14.1989 17 14C17 11.4313 15.1184 9.17844 12.6238 8.76031H12.6256ZM21.5 18.5V20.75C21.5 21.1478 21.342 21.5294 21.0607 21.8107C20.7794 22.092 20.3978 22.25 20 22.25H3.5C3.10218 22.25 2.72064 22.092 2.43934 21.8107C2.15804 21.5294 2 21.1478 2 20.75V18.5C2 18.1022 2.15804 17.7206 2.43934 17.4393C2.72064 17.158 3.10218 17 3.5 17V14C3.49997 12.9113 3.71542 11.8333 4.13395 10.8283C4.55247 9.82323 5.16579 8.91096 5.93853 8.14405C6.71128 7.37714 7.62818 6.77076 8.63638 6.35987C9.64458 5.94899 10.7241 5.74171 11.8128 5.75C16.3269 5.78375 20 9.52719 20 14.0938V17C20.3978 17 20.7794 17.158 21.0607 17.4393C21.342 17.7206 21.5 18.1022 21.5 18.5ZM5 17H18.5V14.0938C18.5 10.3438 15.4953 7.27719 11.8016 7.25H11.75C9.95979 7.25 8.2429 7.96116 6.97703 9.22703C5.71116 10.4929 5 12.2098 5 14V17ZM20 20.75V18.5H3.5V20.75H20Z" fill="white"/>
</svg>
