<svg width="24" height="24" viewBox="0 0 24 24" fill="none" xmlns="http://www.w3.org/2000/svg">
<path d="M16.7447 14.2375C15.5056 14.1248 14.8298 15.8148 13.9286 16.2655C12.4642 17.0542 9.76076 14.2375 9.76076 14.2375C9.76076 14.2375 6.94464 11.5334 7.62051 10.0686C8.18373 9.16728 9.87341 8.49125 9.76076 7.25188C9.64812 6.12517 7.16993 2.06903 5.93084 3.19573C3.22737 5.67449 3.00208 6.68852 3.00208 8.71659C2.88943 12.2094 7.39522 16.6035 7.39522 16.6035C7.8458 17.0542 11.7884 21.1104 15.2804 20.9977C17.308 20.9977 18.3218 20.7724 20.7999 18.0683C21.9264 16.8289 17.9838 14.3501 16.7447 14.2375Z" fill="#989898"/>
</svg>
