<svg width="25" height="25" viewBox="0 0 25 25" fill="none" xmlns="http://www.w3.org/2000/svg">
<path d="M23.5306 4.9455L20.5306 1.9455C20.3899 1.80477 20.199 1.72571 20 1.72571C19.801 1.72571 19.6101 1.80477 19.4694 1.9455C19.3287 2.08623 19.2496 2.2771 19.2496 2.47613C19.2496 2.67515 19.3287 2.86602 19.4694 3.00675L19.6081 3.14456L14.436 7.02394L10.8528 7.74113C10.7078 7.77019 10.5744 7.84126 10.4694 7.9455L2.65627 15.7568C2.23435 16.1787 1.99731 16.751 1.99731 17.3477C1.99731 17.9444 2.23435 18.5167 2.65627 18.9386L6.53752 22.8199C6.95947 23.2418 7.53175 23.4788 8.12846 23.4788C8.72517 23.4788 9.29744 23.2418 9.7194 22.8199L17.5306 15.0096C17.6351 14.9047 17.7062 14.7713 17.735 14.6261L18.4522 11.043L22.3316 5.87081L22.4694 6.00956C22.5391 6.07925 22.6218 6.13452 22.7128 6.17223C22.8039 6.20994 22.9015 6.22935 23 6.22935C23.0986 6.22935 23.1961 6.20994 23.2872 6.17223C23.3782 6.13452 23.461 6.07925 23.5306 6.00956C23.6003 5.93988 23.6556 5.85715 23.6933 5.76611C23.731 5.67506 23.7504 5.57748 23.7504 5.47894C23.7504 5.38039 23.731 5.28281 23.6933 5.19177C23.6556 5.10072 23.6003 5.018 23.5306 4.94831V4.9455ZM9.50002 11.0364L14.4397 15.9761L10.25 20.1658L5.31033 15.2261L9.50002 11.0364ZM8.12846 21.9761C8.03005 21.9764 7.93257 21.9571 7.84165 21.9195C7.75073 21.8818 7.66818 21.8265 7.59877 21.7568L3.7194 17.8774C3.57885 17.7367 3.4999 17.546 3.4999 17.3472C3.4999 17.1484 3.57885 16.9577 3.7194 16.8171L4.25002 16.2864L9.18971 21.2261L8.65627 21.7568C8.51619 21.8967 8.32646 21.9755 8.12846 21.9761ZM17.15 10.2761C17.0828 10.3656 17.0366 10.4691 17.015 10.5789L16.3091 14.1068L15.5 14.9158L10.5603 9.97613L11.3694 9.16706L14.8972 8.46112C15.007 8.43952 15.1105 8.39337 15.2 8.32613L20.6797 4.21613L21.26 4.79644L17.15 10.2761Z" fill="white"/>
</svg>
