<svg width="25" height="25" viewBox="0 0 25 25" fill="none" xmlns="http://www.w3.org/2000/svg">
<path d="M4.86707 4.45142C5.16018 4.2119 5.56361 4.15887 5.90906 4.31372L20.4091 10.8137C20.8079 10.9926 21.0445 11.4099 20.993 11.844C20.9413 12.2777 20.6138 12.6276 20.1844 12.7083L12.7245 14.1067L9.92859 21.0969C9.76587 21.5034 9.35727 21.7575 8.92078 21.7229C8.48442 21.6882 8.12095 21.3734 8.02429 20.9465L4.52429 5.44653C4.44088 5.07714 4.57404 4.69128 4.86707 4.45142ZM9.26648 17.3655L10.8563 13.3899L7.36511 8.94556L9.26648 17.3655ZM12.411 12.1311L16.6766 11.3313L9.12195 7.9436L12.411 12.1311Z" fill="white"/>
</svg>
