<svg width="25" height="25" viewBox="0 0 25 25" fill="none" xmlns="http://www.w3.org/2000/svg">
<path d="M23.5306 4.42157L20.5306 1.42157C20.3899 1.28084 20.199 1.20178 20 1.20178C19.801 1.20178 19.6101 1.28084 19.4694 1.42157C19.3287 1.5623 19.2496 1.75318 19.2496 1.9522C19.2496 2.15122 19.3287 2.34209 19.4694 2.48282L19.6081 2.62064L14.436 6.50001L10.8528 7.2172C10.7078 7.24626 10.5744 7.31733 10.4694 7.42157L2.65627 15.2328C2.23435 15.6548 1.99731 16.2271 1.99731 16.8238C1.99731 17.4205 2.23435 17.9927 2.65627 18.4147L6.53752 22.2959C6.95947 22.7179 7.53175 22.9549 8.12846 22.9549C8.72517 22.9549 9.29744 22.7179 9.7194 22.2959L17.5306 14.4856C17.6351 14.3808 17.7062 14.2474 17.735 14.1022L18.4522 10.5191L22.3316 5.34689L22.4694 5.48564C22.5391 5.55532 22.6218 5.61059 22.7128 5.64831C22.8039 5.68602 22.9015 5.70543 23 5.70543C23.0986 5.70543 23.1961 5.68602 23.2872 5.64831C23.3782 5.61059 23.461 5.55532 23.5306 5.48564C23.6003 5.41595 23.6556 5.33323 23.6933 5.24218C23.731 5.15114 23.7504 5.05356 23.7504 4.95501C23.7504 4.85647 23.731 4.75888 23.6933 4.66784C23.6556 4.57679 23.6003 4.49407 23.5306 4.42439V4.42157ZM9.50002 10.5125L14.4397 15.4522L10.25 19.6419L5.31033 14.7022L9.50002 10.5125ZM8.12846 21.4522C8.03005 21.4525 7.93257 21.4332 7.84165 21.3956C7.75073 21.3579 7.66818 21.3026 7.59877 21.2328L3.7194 17.3534C3.57885 17.2128 3.4999 17.0221 3.4999 16.8233C3.4999 16.6245 3.57885 16.4338 3.7194 16.2931L4.25002 15.7625L9.18971 20.7022L8.65627 21.2328C8.51619 21.3728 8.32646 21.4516 8.12846 21.4522ZM17.15 9.7522C17.0828 9.84167 17.0366 9.94519 17.015 10.055L16.3091 13.5828L15.5 14.3919L10.5603 9.4522L11.3694 8.64314L14.8972 7.9372C15.007 7.9156 15.1105 7.86945 15.2 7.8022L20.6797 3.6922L21.26 4.27251L17.15 9.7522Z" fill="#989898"/>
</svg>
