<svg width="24" height="24" viewBox="0 0 24 24" fill="none" xmlns="http://www.w3.org/2000/svg">
<path d="M22 11.6385C21.9988 10.4932 21.5301 9.3951 20.6969 8.58524C19.8637 7.77539 18.7339 7.31988 17.5556 7.31869H13.8704C13.6009 7.30339 8.90556 6.98211 4.43426 3.33729C4.21834 3.16103 3.95515 3.04833 3.67562 3.01242C3.39608 2.9765 3.11181 3.01887 2.85619 3.13455C2.60057 3.25022 2.38422 3.43439 2.23255 3.66543C2.08089 3.89647 2.00021 4.16478 2 4.43883V18.8381C2.00004 19.1123 2.08059 19.3807 2.23218 19.6119C2.38378 19.843 2.60011 20.0273 2.85577 20.1431C3.11142 20.2589 3.39577 20.3014 3.67539 20.2655C3.95501 20.2296 4.21828 20.1169 4.43426 19.9406C7.93148 17.0895 11.5639 16.2724 13.1111 16.0438V18.8984C13.1108 19.1357 13.1708 19.3694 13.2858 19.5787C13.4009 19.788 13.5673 19.9664 13.7704 20.0981L14.7889 20.7577C14.9858 20.8854 15.2112 20.9655 15.4465 20.9911C15.6817 21.0167 15.9198 20.9871 16.1408 20.9049C16.3619 20.8227 16.5595 20.6902 16.717 20.5185C16.8745 20.3468 16.9874 20.1409 17.0463 19.9181L18.1361 15.9259C19.2053 15.7876 20.1865 15.2767 20.8972 14.4881C21.6079 13.6995 21.9998 12.6868 22 11.6385ZM3.48148 18.8318V4.43883C7.44537 7.67058 11.5028 8.48863 13.1111 8.69022V14.5831C11.5046 14.7883 7.44815 15.6046 3.48148 18.8318ZM15.6111 19.5518V19.5617L14.5926 18.902V15.9583H16.5926L15.6111 19.5518ZM17.5556 14.5183H14.5926V8.75862H17.5556C18.3414 8.75862 19.095 9.06203 19.6507 9.60211C20.2063 10.1422 20.5185 10.8747 20.5185 11.6385C20.5185 12.4023 20.2063 13.1348 19.6507 13.6748C19.095 14.2149 18.3414 14.5183 17.5556 14.5183Z" fill="white"/>
</svg>
