<svg width="25" height="25" viewBox="0 0 25 25" fill="none" xmlns="http://www.w3.org/2000/svg">
<path d="M12.5 3.47607C17.4706 3.47607 21.5 7.50551 21.5 12.4761C21.5 17.4466 17.4706 21.4761 12.5 21.4761C7.52944 21.4761 3.5 17.4466 3.5 12.4761C3.5 7.50551 7.52944 3.47607 12.5 3.47607ZM7.54199 7.53271C6.27954 8.79888 5.5 10.5468 5.5 12.4761C5.5 16.3421 8.63401 19.4761 12.5 19.4761C13.7168 19.4761 14.8606 19.1647 15.8574 18.6187L7.54199 7.53271ZM12.5 5.47607C11.2831 5.47607 10.1386 5.78637 9.1416 6.33252L17.4561 17.4185C18.7188 16.1523 19.5 14.4056 19.5 12.4761C19.5 8.61008 16.366 5.47607 12.5 5.47607Z" fill="#989898"/>
</svg>
