<svg width="24" height="25" viewBox="0 0 24 25" fill="none" xmlns="http://www.w3.org/2000/svg">
<path d="M16.2806 9.99354C16.3504 10.0632 16.4057 10.1459 16.4434 10.237C16.4812 10.328 16.5006 10.4256 16.5006 10.5242C16.5006 10.6227 16.4812 10.7203 16.4434 10.8114C16.4057 10.9024 16.3504 10.9851 16.2806 11.0548L11.0306 16.3048C10.961 16.3745 10.8783 16.4298 10.7872 16.4676C10.6962 16.5053 10.5986 16.5248 10.5 16.5248C10.4014 16.5248 10.3038 16.5053 10.2128 16.4676C10.1218 16.4298 10.039 16.3745 9.96938 16.3048L7.71938 14.0548C7.57865 13.9141 7.49959 13.7232 7.49959 13.5242C7.49959 13.3251 7.57865 13.1343 7.71938 12.9935C7.86011 12.8528 8.05098 12.7738 8.25 12.7738C8.44903 12.7738 8.6399 12.8528 8.78063 12.9935L10.5 14.7139L15.2194 9.99354C15.289 9.92381 15.3718 9.86849 15.4628 9.83075C15.5538 9.79301 15.6514 9.77358 15.75 9.77358C15.8486 9.77358 15.9462 9.79301 16.0372 9.83075C16.1283 9.86849 16.211 9.92381 16.2806 9.99354ZM21.75 12.7742C21.75 14.7025 21.1782 16.5876 20.1068 18.191C19.0355 19.7944 17.5127 21.044 15.7312 21.782C13.9496 22.5199 11.9892 22.713 10.0979 22.3368C8.20656 21.9606 6.46928 21.032 5.10571 19.6685C3.74215 18.3049 2.81355 16.5676 2.43735 14.6763C2.06114 12.785 2.25422 10.8246 2.99218 9.04301C3.73013 7.26143 4.97982 5.73868 6.58319 4.66734C8.18657 3.596 10.0716 3.02417 12 3.02417C14.585 3.0269 17.0634 4.05501 18.8913 5.88289C20.7192 7.71078 21.7473 10.1891 21.75 12.7742ZM20.25 12.7742C20.25 11.1425 19.7662 9.54742 18.8596 8.19072C17.9531 6.83401 16.6646 5.77659 15.1571 5.15216C13.6497 4.52774 11.9909 4.36436 10.3905 4.68269C8.79017 5.00102 7.32016 5.78676 6.16637 6.94054C5.01259 8.09432 4.22685 9.56433 3.90853 11.1647C3.5902 12.765 3.75358 14.4238 4.378 15.9313C5.00242 17.4388 6.05984 18.7273 7.41655 19.6338C8.77326 20.5403 10.3683 21.0242 12 21.0242C14.1873 21.0217 16.2843 20.1517 17.8309 18.6051C19.3775 17.0584 20.2475 14.9614 20.25 12.7742Z" fill="#989898"/>
</svg>
