<svg width="24" height="25" viewBox="0 0 24 25" fill="none" xmlns="http://www.w3.org/2000/svg">
<path d="M21.2912 17.8543C21.7848 16.8612 22.0269 15.7683 21.9976 14.6662C21.9683 13.5641 21.6683 12.4848 21.1226 11.5177C20.5769 10.5507 19.8012 9.72397 18.86 9.10616C17.9188 8.48835 16.8392 8.09733 15.7109 7.96556C15.3355 7.11879 14.7896 6.3532 14.1054 5.71362C13.4212 5.07403 12.6123 4.57331 11.726 4.24078C10.8398 3.90824 9.89414 3.75058 8.94433 3.77702C7.99453 3.80346 7.0597 4.01348 6.19461 4.39476C5.32951 4.77605 4.55154 5.32095 3.90623 5.99754C3.26093 6.67414 2.76127 7.46884 2.43652 8.3351C2.11176 9.20136 1.96844 10.1218 2.01495 11.0424C2.06146 11.9631 2.29685 12.8655 2.70736 13.6968L2.05825 15.837C1.98568 16.076 1.98083 16.3295 2.04421 16.5708C2.10759 16.8122 2.23686 17.0326 2.41842 17.2087C2.59998 17.3848 2.82712 17.5102 3.07594 17.5717C3.32476 17.6332 3.58606 17.6285 3.83235 17.5581L6.0386 16.9284C6.74702 17.2586 7.50653 17.4736 8.28681 17.565C8.66589 18.4266 9.22116 19.2048 9.91904 19.8523C10.6169 20.4999 11.4429 21.0034 12.3471 21.3325C13.2513 21.6616 14.2149 21.8095 15.1796 21.7671C16.1443 21.7247 17.0902 21.4929 17.96 21.0859L20.1662 21.7155C20.4124 21.7859 20.6736 21.7906 20.9223 21.7291C21.171 21.6676 21.3981 21.5423 21.5796 21.3663C21.7612 21.1903 21.8904 20.9701 21.9539 20.7289C22.0174 20.4876 22.0127 20.2343 21.9403 19.9954L21.2912 17.8543ZM6.10645 15.4932C6.0382 15.4933 5.97029 15.5027 5.90467 15.5209L3.42789 16.2294L4.15735 13.825C4.20923 13.6513 4.18905 13.4648 4.1011 13.3053C3.45495 12.1331 3.26457 10.7746 3.56465 9.47755C3.86473 8.1805 4.63529 7.03125 5.73587 6.2393C6.83645 5.44734 8.19376 5.06543 9.56036 5.16316C10.927 5.2609 12.2119 5.83179 13.1808 6.77175C14.1498 7.71172 14.7383 8.95817 14.839 10.2839C14.9398 11.6096 14.5461 12.9263 13.7297 13.9939C12.9133 15.0616 11.7286 15.8091 10.3916 16.1002C9.05451 16.3913 7.65415 16.2066 6.44574 15.5798C6.34183 15.524 6.22521 15.4943 6.10645 15.4932ZM19.8377 17.9816L20.5707 20.3869L18.0921 19.6792C17.9131 19.6289 17.7208 19.6485 17.5564 19.7338C16.2411 20.4151 14.7035 20.5712 13.2713 20.1686C11.8391 19.7661 10.6256 18.8368 9.88948 17.5789C10.8675 17.4798 11.8139 17.1858 12.6692 16.7152C13.5246 16.2447 14.2704 15.6077 14.86 14.8443C15.4496 14.0809 15.8703 13.2075 16.0955 12.279C16.3207 11.3504 16.3457 10.3868 16.1689 9.4484C17.0211 9.64325 17.8156 10.0254 18.4913 10.5655C19.1671 11.1055 19.7058 11.7889 20.066 12.563C20.4263 13.337 20.5983 14.181 20.569 15.0299C20.5396 15.8787 20.3095 16.7096 19.8966 17.4585C19.8077 17.6189 19.7875 17.8068 19.8403 17.9816H19.8377Z" fill="#989898"/>
</svg>
