<svg width="24" height="25" viewBox="0 0 24 25" fill="none" xmlns="http://www.w3.org/2000/svg">
<path d="M12 2.77417C9.61389 2.7769 7.32629 3.72599 5.63905 5.41322C3.95182 7.10046 3.00273 9.38806 3 11.7742C3 14.0242 4.1775 16.936 6.15094 19.5554C8.13656 22.1945 10.3228 23.7742 12 23.7742C13.6772 23.7742 15.8634 22.1982 17.8491 19.5554C19.8225 16.9304 21 14.0242 21 11.7742C20.9973 9.38806 20.0482 7.10046 18.3609 5.41322C16.6737 3.72599 14.3861 2.7769 12 2.77417ZM16.6509 18.6573C15.0225 20.8201 13.1541 22.2742 12 22.2742C10.8459 22.2742 8.9775 20.8201 7.34906 18.6573C5.59219 16.321 4.5 13.6839 4.5 11.7742C4.5 9.78505 5.29018 7.87739 6.6967 6.47087C8.10322 5.06435 10.0109 4.27417 12 4.27417C13.9891 4.27417 15.8968 5.06435 17.3033 6.47087C18.7098 7.87739 19.5 9.78505 19.5 11.7742C19.5 13.6839 18.4078 16.321 16.6509 18.6573ZM11.25 14.0242C11.25 13.0296 10.8549 12.0758 10.1517 11.3725C9.44839 10.6693 8.49456 10.2742 7.5 10.2742C7.10218 10.2742 6.72064 10.4322 6.43934 10.7135C6.15804 10.9948 6 11.3763 6 11.7742C6 12.7687 6.39509 13.7226 7.09835 14.4258C7.80161 15.1291 8.75544 15.5242 9.75 15.5242C10.1478 15.5242 10.5294 15.3661 10.8107 15.0848C11.092 14.8035 11.25 14.422 11.25 14.0242ZM7.5 11.7742C8.09674 11.7742 8.66903 12.0112 9.09099 12.4332C9.51295 12.8551 9.75 13.4274 9.75 14.0242C9.15326 14.0242 8.58097 13.7871 8.15901 13.3652C7.73705 12.9432 7.5 12.3709 7.5 11.7742ZM16.5 10.2742C15.5054 10.2742 14.5516 10.6693 13.8483 11.3725C13.1451 12.0758 12.75 13.0296 12.75 14.0242C12.75 14.422 12.908 14.8035 13.1893 15.0848C13.4706 15.3661 13.8522 15.5242 14.25 15.5242C14.7425 15.5242 15.2301 15.4272 15.6851 15.2387C16.14 15.0503 16.5534 14.774 16.9017 14.4258C17.2499 14.0776 17.5261 13.6642 17.7145 13.2092C17.903 12.7543 18 12.2666 18 11.7742C18 11.3763 17.842 10.9948 17.5607 10.7135C17.2794 10.4322 16.8978 10.2742 16.5 10.2742ZM14.25 14.0242C14.25 13.4274 14.4871 12.8551 14.909 12.4332C15.331 12.0112 15.9033 11.7742 16.5 11.7742C16.5 12.3709 16.2629 12.9432 15.841 13.3652C15.419 13.7871 14.8467 14.0242 14.25 14.0242ZM14.25 18.5242C14.25 18.7231 14.171 18.9138 14.0303 19.0545C13.8897 19.1952 13.6989 19.2742 13.5 19.2742H10.5C10.3011 19.2742 10.1103 19.1952 9.96967 19.0545C9.82902 18.9138 9.75 18.7231 9.75 18.5242C9.75 18.3253 9.82902 18.1345 9.96967 17.9938C10.1103 17.8532 10.3011 17.7742 10.5 17.7742H13.5C13.6989 17.7742 13.8897 17.8532 14.0303 17.9938C14.171 18.1345 14.25 18.3253 14.25 18.5242Z" fill="#989898"/>
</svg>
