<svg width="25" height="25" viewBox="0 0 25 25" fill="none" xmlns="http://www.w3.org/2000/svg">
<path d="M8.5 12.7256C8.5 13.256 8.28929 13.7647 7.91421 14.1398C7.53914 14.5149 7.03043 14.7256 6.5 14.7256C5.96957 14.7256 5.46086 14.5149 5.08579 14.1398C4.71071 13.7647 4.5 13.256 4.5 12.7256C4.5 12.1952 4.71071 11.6864 5.08579 11.3114C5.46086 10.9363 5.96957 10.7256 6.5 10.7256C7.03043 10.7256 7.53914 10.9363 7.91421 11.3114C8.28929 11.6864 8.5 12.1952 8.5 12.7256ZM14.5 12.7256C14.5 13.256 14.2893 13.7647 13.9142 14.1398C13.5391 14.5149 13.0304 14.7256 12.5 14.7256C11.9696 14.7256 11.4609 14.5149 11.0858 14.1398C10.7107 13.7647 10.5 13.256 10.5 12.7256C10.5 12.1952 10.7107 11.6864 11.0858 11.3114C11.4609 10.9363 11.9696 10.7256 12.5 10.7256C13.0304 10.7256 13.5391 10.9363 13.9142 11.3114C14.2893 11.6864 14.5 12.1952 14.5 12.7256ZM18.5 14.7256C19.0304 14.7256 19.5391 14.5149 19.9142 14.1398C20.2893 13.7647 20.5 13.256 20.5 12.7256C20.5 12.1952 20.2893 11.6864 19.9142 11.3114C19.5391 10.9363 19.0304 10.7256 18.5 10.7256C17.9696 10.7256 17.4609 10.9363 17.0858 11.3114C16.7107 11.6864 16.5 12.1952 16.5 12.7256C16.5 13.256 16.7107 13.7647 17.0858 14.1398C17.4609 14.5149 17.9696 14.7256 18.5 14.7256Z" fill="#989898"/>
</svg>
