<svg width="25" height="24" viewBox="0 0 25 24" fill="none" xmlns="http://www.w3.org/2000/svg">
<path fill-rule="evenodd" clip-rule="evenodd" d="M12.5 21.6C15.0461 21.6 17.4879 20.5886 19.2883 18.7883C21.0886 16.9879 22.1 14.5461 22.1 12C22.1 9.45395 21.0886 7.01215 19.2883 5.2118C17.4879 3.41145 15.0461 2.40002 12.5 2.40002C9.95395 2.40002 7.51215 3.41145 5.7118 5.2118C3.91145 7.01215 2.90002 9.45395 2.90002 12C2.90002 14.5461 3.91145 16.9879 5.7118 18.7883C7.51215 20.5886 9.95395 21.6 12.5 21.6ZM13.7 8.40002C13.7 8.08176 13.5736 7.77654 13.3486 7.5515C13.1235 7.32645 12.8183 7.20002 12.5 7.20002C12.1818 7.20002 11.8765 7.32645 11.6515 7.5515C11.4265 7.77654 11.3 8.08176 11.3 8.40002V10.8H8.90002C8.58176 10.8 8.27654 10.9265 8.0515 11.1515C7.82645 11.3765 7.70002 11.6818 7.70002 12C7.70002 12.3183 7.82645 12.6235 8.0515 12.8486C8.27654 13.0736 8.58176 13.2 8.90002 13.2H11.3V15.6C11.3 15.9183 11.4265 16.2235 11.6515 16.4486C11.8765 16.6736 12.1818 16.8 12.5 16.8C12.8183 16.8 13.1235 16.6736 13.3486 16.4486C13.5736 16.2235 13.7 15.9183 13.7 15.6V13.2H16.1C16.4183 13.2 16.7235 13.0736 16.9486 12.8486C17.1736 12.6235 17.3 12.3183 17.3 12C17.3 11.6818 17.1736 11.3765 16.9486 11.1515C16.7235 10.9265 16.4183 10.8 16.1 10.8H13.7V8.40002Z" fill="white"/>
</svg>
