<svg width="24" height="25" viewBox="0 0 24 25" fill="none" xmlns="http://www.w3.org/2000/svg">
<path d="M9.88 10.3799C9.58526 10.6545 9.34885 10.9857 9.18488 11.3537C9.02091 11.7217 8.93274 12.119 8.92564 12.5218C8.91853 12.9246 8.99263 13.3247 9.14351 13.6983C9.2944 14.0718 9.51898 14.4112 9.80385 14.696C10.0887 14.9809 10.4281 15.2055 10.8016 15.3564C11.1752 15.5073 11.5753 15.5814 11.9781 15.5742C12.3809 15.5671 12.7782 15.479 13.1462 15.315C13.5142 15.151 13.8454 14.9146 14.12 14.6199" stroke="#989898" stroke-width="1.5" stroke-linecap="round" stroke-linejoin="round"/>
<path d="M10.73 5.58C11.1513 5.52751 11.5754 5.50079 12 5.5C19 5.5 22 12.5 22 12.5C21.5529 13.4571 20.9922 14.3569 20.33 15.18" stroke="#989898" stroke-width="1.5" stroke-linecap="round" stroke-linejoin="round"/>
<path d="M6.61 7.10986C4.62125 8.46449 3.02987 10.3251 2 12.4999C2 12.4999 5 19.4999 12 19.4999C13.9159 19.505 15.7908 18.945 17.39 17.8899" stroke="#989898" stroke-width="1.5" stroke-linecap="round" stroke-linejoin="round"/>
<path d="M2 2.5L22 22.5" stroke="#989898" stroke-width="1.5" stroke-linecap="round" stroke-linejoin="round"/>
</svg>
